<?xml version="1.0" standalone="no"?>
<!DOCTYPE svg PUBLIC "-//W3C//DTD SVG 1.1//EN" "http://www.w3.org/Graphics/SVG/1.1/DTD/svg11.dtd" >
<svg xmlns="http://www.w3.org/2000/svg" xmlns:xlink="http://www.w3.org/1999/xlink" version="1.1">
<metadata></metadata>
<defs>
<font id="geometriaextrabold_italic" horiz-adv-x="1339" >
<font-face units-per-em="2048" ascent="1610" descent="-438" />
<missing-glyph horiz-adv-x="516" />
<glyph horiz-adv-x="0" />
<glyph horiz-adv-x="682" />
<glyph unicode=" "  horiz-adv-x="516" />
<glyph unicode="&#x09;" horiz-adv-x="516" />
<glyph unicode="&#xa0;" horiz-adv-x="516" />
<glyph unicode="!" horiz-adv-x="739" d="M184.5 188.5q-0.5 90.5 61.5 153.5q64 64 153 64q91 0 152 -64q63 -63 63 -153.5t-63 -153.5q-63 -61 -151.5 -61t-151.5 61q-63 63 -63.5 153.5zM283 496l63 938h498l-232 -938h-329z" />
<glyph unicode="&#x22;" horiz-adv-x="843" d="M174 778l102 656h312l-103 -656h-311zM604 778l103 656h311l-103 -656h-311z" />
<glyph unicode="#" horiz-adv-x="1581" d="M147 317l46 277h276l39 246h-277l43 276h279l49 318h281l-49 -318h256l49 318h280l-49 -318h277l-45 -276h-277l-39 -246h279l-45 -277h-277l-51 -317h-281l52 317h-256l-52 -317h-280l51 317h-279zM750 594h256l38 246h-256z" />
<glyph unicode="$" horiz-adv-x="1294" d="M106 125l60 377q79 -82 231 -140q152 -57 295 -57q46 0 90 6q51 7 94.5 39.5t43.5 79.5q0 45 -56 76q-15 13 -88 35l-119 37l-129 43q-34 13 -112 53q-71 41 -101 74q-38 41 -63 103.5t-25 133.5q0 202 130.5 322t357.5 147l30 199h316l-33 -207q185 -31 309 -100 l-57 -355q-75 53 -215 96q-134 41 -258 41q-199 0 -199 -98q0 -37 62 -63q4 -1 27.5 -10t37.5 -13q45 -10 189 -55q190 -65 285.5 -160.5t95.5 -249.5q0 -206 -144 -338q-140 -131 -364 -161l-31 -199h-315l30 205q-235 30 -375 139z" />
<glyph unicode="%" horiz-adv-x="1677" d="M176 1077q0 153 107 260q108 111 270 111q156 0 260 -96q102 -94 102 -246q0 -151 -108 -262q-109 -109 -268 -109t-260 94q-103 95 -103 248zM285 0l1091 1434h244l-1092 -1434h-243zM414 1075q0 -56 34 -89.5t89 -33.5q60 0 100.5 44.5t40.5 111.5q0 56 -34 89.5 t-89 33.5q-60 0 -100.5 -44.5t-40.5 -111.5zM987 328q0 153 107 260q107 110 270 110q156 0 260 -96q102 -94 102 -246q0 -151 -108 -262q-108 -108 -268 -108q-159 0 -260 94q-103 95 -103 248zM1225 326q0 -56 34 -89.5t89 -33.5q60 0 100.5 44t40.5 111q0 56 -34 89.5 t-89 33.5q-60 0 -100.5 -44t-40.5 -111z" />
<glyph unicode="&#x26;" horiz-adv-x="1515" d="M111 451q0 161 96 280q93 116 207 154q-43 79 -43 192q0 174 125 279.5t340 105.5q112 0 227 -37.5t190 -97.5l-53 -330q-156 156 -332 156q-139 0 -139 -106q0 -47 27.5 -95.5t97.5 -132.5l221 -274q53 80 90 248h342q-49 -291 -225 -506l231 -287h-409l-66 80 q-177 -109 -379 -109q-241 0 -395 127q-153 129 -153 353zM471 469q0 -80 58.5 -134t150.5 -54q86 0 160 41l-258 325q-46 -19 -78.5 -66.5t-32.5 -111.5z" />
<glyph unicode="'" horiz-adv-x="413" d="M174 778l102 656h312l-103 -656h-311z" />
<glyph unicode="(" horiz-adv-x="806" d="M250 408q0 598 375 1026h366q-193 -218 -300 -481t-107 -535q0 -400 225 -729h-367q-192 280 -192 719z" />
<glyph unicode=")" horiz-adv-x="806" d="M12 -311q193 219 300.5 482t107.5 534q0 401 -225 729h366q193 -281 193 -719q0 -599 -375 -1026h-367z" />
<glyph unicode="*" horiz-adv-x="858" d="M197 946l225 113l-186 102l120 168l172 -127l25 232h203l-43 -228l209 123l73 -174l-225 -113l186 -102l-125 -168l-167 123l-29 -227h-203l47 225l-209 -121z" />
<glyph unicode="+" horiz-adv-x="1257" d="M174 514l51 320h377l60 378h319l-59 -378h376l-51 -320h-377l-59 -377h-319l59 377h-377z" />
<glyph unicode="," horiz-adv-x="669" d="M-25 -311l287 671h375l-369 -671h-293z" />
<glyph unicode="-" horiz-adv-x="1009" d="M238 414l51 323h661l-51 -323h-661z" />
<glyph unicode="." horiz-adv-x="573" d="M104 190q0 87 62 152q64 64 153 64q91 0 152 -64q64 -64 64 -152q0 -91 -62.5 -154t-153.5 -63t-153 63t-62 154z" />
<glyph unicode="/" horiz-adv-x="1118" d="M-113 -287l1164 1909h362l-1165 -1909h-361z" />
<glyph unicode="0" horiz-adv-x="1454" d="M197 621q0 148 47 294t133 269q88 127 226 202.5t296 75.5q269 0 424 -180q158 -181 158 -469q0 -147 -47 -293.5t-134 -271.5q-89 -126 -226.5 -201.5t-295.5 -75.5q-270 0 -426 179q-155 180 -155 471zM565 627q0 -141 59 -229.5t171 -88.5q143 0 229 160 q86 164 86 338q0 142 -57.5 229.5t-169.5 87.5q-96 0 -174 -84q-72 -81 -108 -190t-36 -223z" />
<glyph unicode="1" horiz-adv-x="845" d="M184 909l56 355l362 170h320l-226 -1434h-362l164 1044z" />
<glyph unicode="2" horiz-adv-x="1191" d="M72 0l43 264l428 352q151 125 213 199q59 71 59 146q0 78 -51.5 121.5t-145.5 43.5q-197 0 -389 -139l60 367q172 108 405 108q207 0 350 -119q146 -122 146 -325q0 -148 -85 -277t-276 -278l-190 -150h526l-49 -313h-1044z" />
<glyph unicode="3" horiz-adv-x="1193" d="M86 106l55 340q204 -151 418 -151q111 0 187.5 56t76.5 155q0 74 -60 120t-167 46t-207 -41l37 235l348 258h-487l51 310h942l-45 -273l-328 -262q103 -37 193 -133q88 -94 88 -254q0 -244 -174 -393q-174 -148 -445 -148q-295 0 -483 135z" />
<glyph unicode="4" horiz-adv-x="1325" d="M90 340l41 258l815 836h365l-127 -807h198l-45 -287h-198l-54 -340h-358l53 340h-690zM524 627h301l58 360z" />
<glyph unicode="5" horiz-adv-x="1198" d="M100 86l52 340q184 -135 393 -135q118 0 198 51q84 53 84 162q0 80 -69.5 125t-202.5 45q-150 0 -326 -51l211 811h807l-49 -314h-534l-41 -164q68 5 82 5q222 0 358 -127q137 -125 137 -316q0 -261 -182 -405t-471 -144q-277 0 -447 117z" />
<glyph unicode="6" horiz-adv-x="1308" d="M193 541q0 176 51 339.5t145 293.5q96 134 244 211t323 77q233 0 363 -106l-51 -324q-126 105 -303 105q-135 0 -233 -79t-128 -208q120 108 291 108q185 -6 297 -127q113 -119 113 -303q0 -244 -162 -399q-161 -158 -420 -158q-254 0 -393 160q-137 158 -137 410z M541 483q0 -96 50 -151.5t130 -55.5q89 0 154 65.5t65 158.5q0 80 -46.5 129t-129.5 49q-126 0 -215 -121q-8 -31 -8 -74z" />
<glyph unicode="7" horiz-adv-x="1181" d="M143 0l729 1112h-632l49 322h1046l-45 -287l-755 -1147h-392z" />
<glyph unicode="8" horiz-adv-x="1329" d="M139 399q0 128 84 238q83 105 226 147q-71 36 -113.5 108.5t-42.5 154.5q0 185 156 299q155 116 374 116q125 0 240 -41q117 -42 197 -133q83 -92 83 -221q0 -108 -65 -196.5t-172 -131.5q92 -39 151.5 -127t59.5 -190q0 -202 -172 -328q-170 -123 -406 -123 q-148 0 -282 41q-133 44 -226 144q-92 103 -92 243zM520 444q0 -67 59.5 -113t147.5 -46q90 0 154.5 47.5t64.5 124.5q0 68 -59 114.5t-150 46.5q-89 0 -153 -48.5t-64 -125.5zM637 1008q0 -57 49 -97.5t121 -40.5q74 0 127 41t53 107q0 61 -49 99t-123 38t-126 -40.5 t-52 -106.5z" />
<glyph unicode="9" horiz-adv-x="1308" d="M215 78l51 323q125 -104 303 -104q135 0 233 79t128 208q-121 -109 -291 -109q-184 6 -299 127q-111 120 -111 303q0 243 160 400q165 157 422 157q255 0 393 -159q137 -158 137 -410q0 -176 -51 -340t-145 -295q-96 -132 -244.5 -209.5t-322.5 -77.5q-232 0 -363 107z M594 934q0 -80 46.5 -129t129.5 -49q126 0 215 121q8 31 8 73q0 96 -50 151.5t-130 55.5q-89 0 -154 -65t-65 -158z" />
<glyph unicode=":" horiz-adv-x="573" d="M104 190q0 87 62 152q64 64 153 64q91 0 152 -64q64 -64 64 -152q0 -91 -62.5 -154t-153.5 -63t-153 63t-62 154zM203 821q0 88 61 152q63 63 154 63t151 -63q64 -64 64 -152q0 -91 -62 -154t-153 -63t-153 63t-62 154z" />
<glyph unicode=";" horiz-adv-x="663" d="M-25 -311l287 671h375l-369 -671h-293zM293 821q0 88 61 152q63 63 154 63t151 -63q64 -64 64 -152q0 -91 -62 -154t-153 -63t-153 63t-62 154z" />
<glyph unicode="&#x3c;" horiz-adv-x="1257" d="M172 512l55 342l1139 426l-59 -367l-746 -245l668 -246l-51 -336z" />
<glyph unicode="=" horiz-adv-x="1257" d="M137 291l51 323h1074l-52 -323h-1073zM211 756l51 323h1073l-51 -323h-1073z" />
<glyph unicode="&#x3e;" horiz-adv-x="1257" d="M104 86l60 369l745 245l-667 246l51 334l1007 -426l-55 -342z" />
<glyph unicode="?" horiz-adv-x="1030" d="M209 1055l51 311q184 96 408 96q202 0 348 -96q145 -95 145 -285q0 -175 -125 -288t-313 -160l-23 -137h-344l50 321q102 12 225 57q69 25 110 66.5t41 91.5q0 111 -217 111q-152 0 -356 -88zM270.5 188.5q-0.5 90.5 61.5 153.5q64 64 153 64q91 0 152 -64 q63 -63 63 -153.5t-63 -153.5q-63 -61 -151.5 -61t-151.5 61q-63 63 -63.5 153.5z" />
<glyph unicode="@" horiz-adv-x="1894" d="M133 494q0 256 123 477q127 222 346 356q225 135 492 135q360 0 596 -227q237 -225 237 -557q0 -238 -129 -408q-125 -168 -336 -168q-202 0 -264 140q-138 -150 -324 -150q-168 0 -270 117q-100 118 -100 297q0 209 125 364q127 160 340 160q88 0 160 -35t112 -86l16 99 h293l-92 -592q-6 -38 -6 -68q0 -135 107 -135q111 0 196 135q86 139 86 328q0 297 -205 502q-203 206 -546 206q-354 0 -611 -260q-258 -261 -258 -626q0 -326 207 -539t543 -213q234 0 461 127l-15 -92q-204 -113 -450 -113q-358 0 -596 232t-238 594zM821 537 q0 -83 50.5 -132t127.5 -49q105 0 170 95l35 221q-58 98 -170 98q-92 0 -152.5 -67t-60.5 -166z" />
<glyph unicode="A" horiz-adv-x="1599" d="M20 0l830 1442h354l375 -1442h-387l-74 303h-532l-168 -303h-398zM750 598h299l-91 383z" />
<glyph unicode="B" horiz-adv-x="1458" d="M137 0l225 1434h660q189 0 301.5 -83t112.5 -235q0 -104 -52.5 -190t-148.5 -133q90 -21 162 -109q71 -86 71 -219q0 -211 -157 -338t-400 -127h-774zM553 307h317q87 0 143 46t56 124q0 61 -45.5 98t-120.5 37h-301zM645 885h264q73 0 117.5 37.5t44.5 103.5 q0 51 -36.5 80t-98.5 29h-252z" />
<glyph unicode="C" horiz-adv-x="1378" d="M197 649q0 364 233 588q237 225 608 225q246 0 435 -88l-62 -346q-155 94 -375 94q-211 0 -336 -125q-125 -122 -125 -325q0 -158 105 -260q107 -101 287 -101q230 0 395 115l-57 -367q-186 -88 -375 -88q-327 0 -531 189q-202 190 -202 489z" />
<glyph unicode="D" horiz-adv-x="1601" d="M137 0l225 1434h527q327 0 526 -187q199 -184 199 -479q0 -332 -236 -549q-239 -219 -602 -219h-639zM557 324h238q207 0 323 122q117 126 117 322q0 146 -98 244q-94 98 -258 98h-199z" />
<glyph unicode="E" d="M137 0l225 1434h1090l-51 -324h-721l-31 -195h574l-49 -311h-574l-43 -280h737l-51 -324h-1106z" />
<glyph unicode="F" horiz-adv-x="1298" d="M137 0l225 1434h1090l-51 -324h-721l-33 -209h539l-49 -311h-539l-92 -590h-369z" />
<glyph unicode="G" horiz-adv-x="1558" d="M197 653q0 358 233 582q236 227 608 227q250 0 439 -88l-62 -346q-155 94 -379 94q-211 0 -336 -125q-125 -122 -125 -331q0 -165 101 -266t258 -101q128 0 217 59l74 478h370l-104 -662q-221 -203 -592 -203q-306 0 -506 191q-196 190 -196 491z" />
<glyph unicode="H" horiz-adv-x="1552" d="M137 0l228 1434h368l-82 -510h541l82 510h368l-227 -1434h-368l94 596h-541l-94 -596h-369z" />
<glyph unicode="I" horiz-adv-x="659" d="M145 0l226 1434h368l-225 -1434h-369z" />
<glyph unicode="J" horiz-adv-x="1052" d="M59 63l58 357q47 -47 126.5 -78t151.5 -31q112 0 174 63t86 210l136 850h368l-153 -959q-20 -118 -60.5 -207t-93.5 -145t-123 -90.5t-142.5 -48t-158.5 -13.5q-93 0 -205 25q-105 23 -164 67z" />
<glyph unicode="K" horiz-adv-x="1505" d="M137 0l225 1434h369l-86 -547l522 547h459l-649 -686l530 -748h-440l-461 637l-100 -637h-369z" />
<glyph unicode="L" horiz-adv-x="1247" d="M137 0l225 1434h369l-174 -1110h688l-51 -324h-1057z" />
<glyph unicode="M" horiz-adv-x="1730" d="M137 0l225 1434h355l278 -551l449 551h377l-226 -1434h-366l137 874l-313 -385h-203l-207 385l-137 -874h-369z" />
<glyph unicode="N" horiz-adv-x="1574" d="M137 0l225 1434h314l500 -824l129 824h360l-225 -1434h-303l-508 827l-129 -827h-363z" />
<glyph unicode="O" horiz-adv-x="1695" d="M197 666q0 338 229 567t563 229q330 0 522 -192q197 -194 197 -502q0 -338 -229 -567q-230 -230 -564 -230q-323 0 -522 193q-196 193 -196 502zM575 666q0 -149 95 -252t256 -103q177 0 291 129q112 130 112 328q0 148 -96 252q-94 102 -254 102q-178 0 -291 -131 t-113 -325z" />
<glyph unicode="P" horiz-adv-x="1345" d="M137 0l225 1434h615q222 0 348 -111q129 -108 129 -285q0 -222 -162 -362q-159 -141 -409 -141h-293l-84 -535h-369zM637 838h242q87 0 143.5 41.5t56.5 119.5q0 123 -153 123h-244z" />
<glyph unicode="Q" horiz-adv-x="1695" d="M197 666q0 338 229 567t563 229q330 0 522 -192q197 -194 197 -502q0 -255 -139 -459q-139 -200 -367 -286q54 -72 176 -72q96 0 178 43l-47 -305q-115 -47 -237 -47q-267 0 -467 335q-278 34 -445 222q-163 187 -163 467zM575 666q0 -149 95 -252t256 -103 q177 0 291 129q112 130 112 328q0 148 -96 252q-94 102 -254 102q-178 0 -291 -131t-113 -325z" />
<glyph unicode="R" horiz-adv-x="1492" d="M137 0l225 1434h635q219 0 346 -115t127 -289q0 -145 -85.5 -260t-237.5 -182l360 -588h-415l-336 547h-164l-86 -547h-369zM639 848h276q82 0 131.5 37.5t49.5 107.5q0 60 -40 94.5t-112 34.5h-262z" />
<glyph unicode="S" horiz-adv-x="1294" d="M106 125l60 377q79 -82 231 -140q152 -57 295 -57q46 0 90 6q51 7 94.5 39.5t43.5 79.5q0 45 -56 76q-15 13 -88 35l-119 37l-129 43q-34 13 -112 53q-71 41 -101 74q-38 41 -63 103.5t-25 133.5q0 236 170 356q174 121 441 121q295 0 499 -116l-57 -355q-75 53 -215 96 q-134 41 -258 41q-199 0 -199 -98q0 -37 62 -63q4 -1 27.5 -10t37.5 -13q45 -10 189 -55q190 -65 285.5 -160.5t95.5 -249.5q0 -234 -183 -373q-182 -135 -450 -135q-365 0 -566 154z" />
<glyph unicode="T" horiz-adv-x="1345" d="M231 1110l52 324h1230l-51 -324h-432l-174 -1110h-369l175 1110h-431z" />
<glyph unicode="U" horiz-adv-x="1495" d="M203 502q0 44 10 129l127 803h373l-129 -811q-11 -68 -11 -95q0 -104 66 -160.5t180 -56.5q110 0 185.5 64.5t95.5 189.5l137 869h371l-138 -871q-47 -287 -235 -438q-192 -154 -449 -154q-238 0 -413 140q-170 138 -170 391z" />
<glyph unicode="V" horiz-adv-x="1568" d="M248 1434h397l209 -934l506 934h412l-816 -1442h-350z" />
<glyph unicode="W" horiz-adv-x="2228" d="M250 1434h403l107 -854l436 858h287l162 -858l376 854h412l-707 -1442h-323l-154 839l-424 -839h-327z" />
<glyph unicode="X" horiz-adv-x="1507" d="M-10 0l669 770l-362 664h420l196 -369l314 369h434l-571 -662l428 -772h-418l-262 477l-408 -477h-440z" />
<glyph unicode="Y" horiz-adv-x="1490" d="M236 1434h411l246 -473l395 473h418l-676 -791l-100 -643h-369l101 635z" />
<glyph unicode="Z" horiz-adv-x="1314" d="M51 0l41 262l817 848h-657l51 324h1153l-41 -260l-815 -850h715l-51 -324h-1213z" />
<glyph unicode="[" horiz-adv-x="925" d="M78 -422l295 1868h708l-43 -279h-381l-208 -1310h380l-43 -279h-708z" />
<glyph unicode="\" horiz-adv-x="1118" d="M227 1622h342l559 -1909h-342z" />
<glyph unicode="]" horiz-adv-x="925" d="M6 -422l41 279h381l209 1310h-381l43 279h709l-295 -1868h-707z" />
<glyph unicode="^" horiz-adv-x="1165" d="M160 686l493 850h342l228 -850h-334l-107 541l-274 -541h-348z" />
<glyph unicode="_" horiz-adv-x="1351" d="M-45 -328l39 238h1337l-39 -238h-1337z" />
<glyph unicode="`" horiz-adv-x="1069" d="M479 1491h428l146 -311h-301z" />
<glyph unicode="a" horiz-adv-x="1239" d="M92 293q0 167 123 262q122 98 301 98q176 0 293 -63q4 36 4 57q0 137 -238 137q-153 0 -294 -63l45 285q158 61 358 61q211 0 350 -92q142 -92 142 -291q0 -16 -17 -135l-26 -156q-9 -47 -9 -71q0 -56 62 -56q23 0 53 10l-41 -251q-76 -48 -182 -48q-206 0 -246 119 q-123 -123 -311 -123q-169 0 -268 89t-99 231zM451 324q0 -51 38.5 -81t100.5 -30q108 0 172 82l18 111q-57 51 -157 51q-72 0 -122 -36t-50 -97z" />
<glyph unicode="b" d="M125 0l225 1434h363l-80 -506q130 139 315 139q186 0 301 -139q117 -138 117 -342q0 -152 -59 -291q-62 -142 -191 -232t-291 -90q-201 0 -319 142l-19 -115h-362zM549 391q27 -49 86 -82t125 -33q97 0 166 78t69 195q0 97 -53.5 154t-142.5 57q-133 0 -209 -111z" />
<glyph unicode="c" horiz-adv-x="1048" d="M133 485q0 249 180 414q180 168 451 168q188 0 336 -80l-49 -301q-135 66 -258 66q-131 0 -215 -69t-84 -181t86 -168q88 -55 198 -55q121 0 234 49l-49 -301q-130 -54 -273 -54q-234 0 -397 138q-160 139 -160 374z" />
<glyph unicode="d" horiz-adv-x="1341" d="M133 455q0 148 60 290q62 142 190.5 232t290.5 90q202 0 319 -141l80 508h363l-224 -1434h-362l16 113q-131 -140 -315 -140q-186 0 -303 138q-115 139 -115 344zM504 492q0 -97 53.5 -154t142.5 -57q133 0 209 110l41 258q-27 49 -86 82t-125 33q-97 0 -168 -80 q-67 -76 -67 -192z" />
<glyph unicode="e" horiz-adv-x="1167" d="M133 473q0 256 168 424q170 170 420 170q212 0 344 -123q133 -124 133 -321q0 -72 -22 -191h-697q10 -79 89 -120.5t202 -41.5q166 0 332 84l-43 -282q-135 -99 -391 -99q-230 0 -383 138q-152 140 -152 362zM506 625h346q1 9 1 18q1 68 -35 110q-40 48 -113 48 q-70 0 -124.5 -47.5t-74.5 -128.5z" />
<glyph unicode="f" horiz-adv-x="929" d="M150 750l47 290h174l4 29q25 187 137.5 290t304.5 103q158 0 277 -49l-45 -280q-88 36 -168 36q-68 0 -104 -30.5t-46 -98.5h303l-47 -290h-301l-119 -750h-362l119 750h-174z" />
<glyph unicode="g" horiz-adv-x="1306" d="M111 -334l49 316q149 -101 356 -101q65 0 135 17q71 19 129.5 77.5t71.5 145.5l8 59q-133 -133 -317 -133q-185 0 -299 129q-111 129 -111 320q0 224 141 397q144 172 392 172q192 0 313 -133l16 108h363l-146 -931q-27 -189 -141 -312q-108 -118 -246.5 -168.5 t-314.5 -50.5q-265 0 -399 88zM504 526q0 -84 51.5 -133t138.5 -49q122 0 207 98l35 220q-69 100 -205 100q-98 0 -162.5 -68t-64.5 -168z" />
<glyph unicode="h" horiz-adv-x="1269" d="M125 0l227 1434h363l-82 -512q154 145 328 145q146 0 230.5 -94.5t84.5 -251.5q0 -73 -12 -146l-90 -575h-363l82 522q8 47 8 86q0 66 -35.5 100.5t-93.5 34.5q-98 0 -180 -88l-105 -655h-362z" />
<glyph unicode="i" horiz-adv-x="634" d="M135 0l164 1040h363l-164 -1040h-363zM317 1343q0 88 60.5 148.5t146.5 60.5q88 0 148.5 -60.5t60.5 -148.5t-60.5 -148t-148.5 -60q-86 0 -146.5 60.5t-60.5 147.5z" />
<glyph unicode="j" horiz-adv-x="634" d="M-225 -377l47 301q71 -39 149 -39q80 0 118.5 38t55.5 140l154 977h363l-170 -1073q-31 -191 -153 -290t-321 -99q-166 0 -243 45zM317 1343q0 88 60.5 148.5t146.5 60.5q88 0 148.5 -60.5t60.5 -148.5t-60.5 -148t-148.5 -60q-86 0 -146.5 60.5t-60.5 147.5z" />
<glyph unicode="k" horiz-adv-x="1294" d="M125 0l225 1434h363l-119 -742l344 348h457l-490 -491l391 -549h-417l-324 440l-68 -440h-362z" />
<glyph unicode="l" horiz-adv-x="684" d="M168 229q0 54 14 131l168 1074h363l-164 -1045q-6 -37 -6 -53q0 -53 61 -53q39 0 64 14l-45 -285q-85 -39 -195 -39q-122 0 -191 65t-69 191z" />
<glyph unicode="m" horiz-adv-x="1908" d="M125 0l164 1040h362l-18 -118q142 145 319 145q100 0 178 -50t105 -118q70 76 167.5 122t199.5 46q142 0 227.5 -85t85.5 -237q0 -50 -21 -170l-90 -575h-362l86 549q8 52 8 80q0 59 -31.5 87.5t-83.5 28.5q-100 0 -172 -90l-102 -655h-363l84 539q11 68 11 90 q0 58 -31.5 87t-79.5 29q-103 0 -178 -90l-103 -655h-362z" />
<glyph unicode="n" horiz-adv-x="1269" d="M125 0l164 1040h362l-18 -116q149 143 328 143q146 0 230.5 -94.5t84.5 -251.5q0 -73 -12 -146l-90 -575h-363l82 522q8 47 8 86q0 66 -35.5 100.5t-93.5 34.5q-98 0 -180 -88l-105 -655h-362z" />
<glyph unicode="o" horiz-adv-x="1241" d="M133 500q0 228 166 397q167 170 414 170q241 0 397 -147q158 -146 158 -377t-166 -400q-167 -170 -416 -170q-239 0 -397 146q-156 147 -156 381zM479 492q0 -95 58 -154t147 -59q97 0 168 77q70 79 70 195q0 95 -59 153t-148 58q-97 0 -168 -80q-68 -77 -68 -190z" />
<glyph unicode="p" d="M59 -410l230 1450h362l-18 -112q130 139 315 139q186 0 301 -139q117 -138 117 -342q0 -154 -61 -291q-62 -142 -191 -232t-291 -90q-201 0 -319 142l-82 -525h-363zM549 391q27 -49 86 -82t125 -33q97 0 166 78t69 195q0 97 -53.5 154t-142.5 57q-133 0 -209 -111z" />
<glyph unicode="q" d="M133 455q0 148 60 290q62 142 190.5 232t290.5 90q202 0 319 -141l19 114h362l-227 -1450h-363l82 523q-131 -140 -315 -140q-186 0 -303 138q-115 139 -115 344zM504 492q0 -97 53.5 -154t142.5 -57q133 0 209 110l41 258q-27 49 -86 82t-125 33q-97 0 -168 -80 q-67 -76 -67 -192z" />
<glyph unicode="r" horiz-adv-x="931" d="M125 0l164 1040h362l-26 -170q50 75 153 134q105 63 219 63q25 0 45 -4l-55 -350q-69 16 -121 16q-91 0 -168 -34.5t-116 -90.5l-95 -604h-362z" />
<glyph unicode="s" horiz-adv-x="1060" d="M92 92l45 293q71 -53 186.5 -90t237.5 -37q121 0 121 53q0 27 -43 45q-29 14 -45 19q-48 19 -133 45q-150 52 -214.5 114t-64.5 160q0 181 140 277t346 96q260 0 428 -119l-47 -286q-173 124 -367 124q-121 0 -121 -51q0 -24 27 -38.5t117 -41.5l73 -22 q143 -45 209 -114.5t66 -180.5q0 -176 -146 -272q-146 -93 -340 -93q-131 0 -261 32t-214 87z" />
<glyph unicode="t" horiz-adv-x="919" d="M147 750l48 290h182l43 267h362l-43 -267h265l-48 -290h-264l-45 -289q-10 -78 -10 -92q0 -82 100 -82q78 0 154 43l-45 -289q-112 -68 -268 -68q-139 0 -227.5 81t-88.5 220q0 49 8 93l60 383h-183z" />
<glyph unicode="u" horiz-adv-x="1273" d="M158 319q0 72 12 146l90 575h363l-82 -522q-9 -52 -9 -86q0 -66 36 -100.5t94 -34.5q98 0 180 88l104 655h363l-164 -1040h-363l19 119q-155 -146 -328 -146q-146 0 -230.5 94.5t-84.5 251.5z" />
<glyph unicode="v" horiz-adv-x="1216" d="M160 1040h377l131 -598l319 598h381l-606 -1048h-328z" />
<glyph unicode="w" horiz-adv-x="1705" d="M184 1040h351l81 -530l250 534h287l86 -534l246 530h364l-512 -1048h-311l-98 534l-260 -534h-310z" />
<glyph unicode="x" horiz-adv-x="1255" d="M20 0l490 537l-297 503h385l141 -247l211 247h418l-455 -501l320 -539h-385l-160 279l-248 -279h-420z" />
<glyph unicode="y" horiz-adv-x="1247" d="M43 -375l49 312q71 -50 160 -50q146 0 229 148l-297 1005h377l146 -626l301 626h383l-629 -1144q-176 -318 -496 -318q-134 0 -223 47z" />
<glyph unicode="z" horiz-adv-x="1105" d="M61 0l37 240l543 508h-436l47 292h919l-38 -247l-551 -500h503l-45 -293h-979z" />
<glyph unicode="{" horiz-adv-x="847" d="M145 422l43 278q94 10 135 60.5t60 167.5l20 133q29 171 145.5 272t287.5 101h186l-45 -279h-109q-55 0 -92.5 -34.5t-48.5 -92.5l-35 -211q-30 -203 -215 -256q141 -40 141 -188q0 -32 -8 -76l-28 -174l-7 -51q0 -48 29 -76.5t78 -28.5h109l-46 -278h-186 q-151 0 -235 78.5t-84 216.5q0 36 6 77q30 194 30 226q0 63 -30 95.5t-101 39.5z" />
<glyph unicode="|" horiz-adv-x="739" d="M178 -227l281 1783h311l-281 -1783h-311z" />
<glyph unicode="}" horiz-adv-x="847" d="M2 -311l45 278h109q55 0 92.5 34.5t48.5 92.5l35 211q30 203 215 256q-141 41 -141 189q0 31 8 75l28 174q7 51 7 52q0 47 -29 75.5t-78 28.5h-109l46 279h186q151 0 235 -78.5t84 -216.5q0 -37 -6 -78q-30 -193 -30 -225q0 -63 30.5 -96t100.5 -40l-43 -278 q-94 -10 -135 -60.5t-60 -166.5l-20 -134q-29 -171 -145.5 -271.5t-287.5 -100.5h-186z" />
<glyph unicode="~" horiz-adv-x="1257" d="M143 330l52 321q37 39 113 64.5t155 25.5q110 0 272 -57t273 -57q162 0 272 98l-51 -324q-39 -39 -114.5 -63.5t-156.5 -24.5q-104 0 -272 56q-162 57 -274 57q-159 0 -269 -96z" />
<glyph unicode="&#xa1;" horiz-adv-x="739" d="M72 -410l231 955h330l-64 -955h-497zM301 852q0 91 61 152q63 63 154 63q92 0 152 -63q63 -60 63 -152q0 -91 -63 -154q-60 -63 -152 -63q-91 0 -154 63q-61 64 -61 154z" />
<glyph unicode="&#xa2;" horiz-adv-x="1048" d="M133 485q0 216 139 373q141 156 363 197l35 223h303l-37 -231q75 -15 164 -60l-49 -301q-135 66 -258 66q-131 0 -215 -69t-84 -181t86 -168q88 -55 198 -55q121 0 234 49l-49 -301q-96 -41 -195 -50l-35 -217h-303l39 250q-156 55 -246 178.5t-90 296.5z" />
<glyph unicode="&#xa3;" horiz-adv-x="1200" d="M61 0l52 324h61q116 0 137 131l17 110h-178l43 269h178l28 153q43 231 199.5 353t407.5 122q197 0 323 -63l-57 -355q-133 62 -248 62q-239 0 -274 -213l-11 -59h410l-43 -269h-410l-16 -112q-7 -40 -27 -73.5t-39 -45.5l-18 -10h604l-51 -324h-1088z" />
<glyph unicode="&#xa4;" horiz-adv-x="1198" d="M186 344l136 135q-68 109 -68 239.5t68 239.5l-136 136l152 153l135 -135q115 68 240 68q130 0 239 -68l138 135l151 -153l-135 -136q68 -109 68 -239.5t-68 -239.5l135 -135l-151 -154l-138 136q-109 -68 -239 -68q-125 0 -240 68l-135 -136zM528 719q0 -77 55 -132 t130 -55q78 0 132 54.5t54 132.5t-54 132t-132 54q-76 0 -130.5 -54.5t-54.5 -131.5z" />
<glyph unicode="&#xa5;" horiz-adv-x="1429" d="M182 252l35 225h387l21 123h-387l34 225h297l-333 609h380l244 -484l397 484h388l-531 -609h301l-35 -225h-387l-20 -123h387l-35 -225h-387l-39 -252h-369l39 252h-387z" />
<glyph unicode="&#xa6;" horiz-adv-x="739" d="M178 -227l113 723h311l-113 -723h-311zM346 834l113 722h311l-113 -722h-311z" />
<glyph unicode="&#xa7;" horiz-adv-x="1345" d="M137 -215l51 317q232 -149 467 -149q170 0 170 78q0 41 -57 65q-48 24 -57 27l-86 31l-95 32q-195 72 -290 157.5t-95 215.5q0 102 63 181.5t171 123.5q-68 77 -68 183q0 140 80 235q150 180 477 180q302 0 512 -131l-51 -317q-238 149 -469 149q-168 0 -168 -80 q0 -34 56 -65q53 -23 59 -25l84 -30q59 -21 96 -33q193 -72 289 -158.5t96 -214.5q0 -102 -62.5 -181.5t-170.5 -123.5q67 -76 67 -182q-1 -103 -47 -185.5t-124 -133t-177 -76t-209 -23.5q-299 0 -512 133zM492 616q0 -39 57 -71q44 -22 59 -27l164 -61l146 -60 q48 6 78 33.5t30 69.5q0 39 -57 71q-42 21 -60 27l-164 61l-145 58q-49 -6 -78.5 -32.5t-29.5 -68.5z" />
<glyph unicode="&#xa8;" horiz-adv-x="1069" d="M322 1337q0 73 52 124.5t126 51.5q75 0 126.5 -51t51.5 -125t-51.5 -126t-126.5 -52q-72 0 -125 52.5t-53 125.5zM787 1337.5q0 73.5 51 124.5q54 51 127.5 51t124.5 -51q54 -51 54 -124.5t-54 -127.5q-51 -51 -124.5 -51t-127.5 51q-51 54 -51 127.5z" />
<glyph unicode="&#xa9;" horiz-adv-x="1687" d="M217 717q0 307 217 524q218 221 527 221q308 0 524 -219q215 -218 215 -526q0 -307 -217 -527q-219 -219 -527 -219t-524 219q-215 218 -215 527zM297 713q0 -278 190 -471q192 -195 469 -195q283 0 474 197q190 196 190 477q0 278 -190 471q-188 194 -469 194t-474 -196 q-190 -196 -190 -477zM575 717q0 170 127 291q126 120 316 120q119 0 205 -45v-202q-95 59 -205 59q-99 0 -165.5 -63.5t-66.5 -159.5q0 -98 68.5 -160.5t173.5 -62.5q125 0 209 63v-203q-92 -51 -219 -51q-186 0 -316 121q-127 124 -127 293z" />
<glyph unicode="&#xaa;" horiz-adv-x="901" d="M160 881q0 127 92 198q95 74 225 74q137 0 246 -59q0 1 3 22t3 35q0 123 -194 123q-120 0 -232 -53l27 182q115 47 270 47q157 0 251.5 -67.5t94.5 -202.5q0 -29 -10 -97l-25 -147q-8 -52 -8 -59q0 -50 53 -50q17 0 41 9l-26 -158q-53 -29 -115 -29q-145 0 -166 94 q-106 -100 -254 -100q-126 0 -201 66t-75 172zM379 899q0 -90 133 -90q109 0 176 76l14 82q-62 45 -167 45q-70 0 -113 -29t-43 -84z" />
<glyph unicode="&#xab;" horiz-adv-x="1282" d="M137 430l27 178l325 367h361l-399 -471l254 -438h-361zM666 430l26 178l326 367h360l-399 -471l254 -438h-361z" />
<glyph unicode="&#xac;" horiz-adv-x="1171" d="M184 586l52 323h987l-103 -641h-323l51 318h-664z" />
<glyph unicode="&#xad;" horiz-adv-x="1009" d="M238 414l51 323h661l-51 -323h-661z" />
<glyph unicode="&#xae;" horiz-adv-x="1667" d="M197 717q0 307 217 524q218 221 526 221t524 -219q215 -218 215 -526q0 -307 -217 -527q-219 -219 -526 -219q-308 0 -524 219q-215 218 -215 527zM276 713q0 -276 189 -471q192 -195 471 -195q282 0 473 197q190 196 190 477q0 278 -190 471q-188 194 -469 194 q-283 0 -473 -196q-191 -197 -191 -477zM614 344v793h373q130 0 207.5 -67.5t77.5 -176.5q0 -78 -41 -137.5t-113 -85.5l238 -326h-226l-221 303h-92v-303h-203zM817 811h160q88 0 88 76q0 37 -23.5 58.5t-64.5 21.5h-160v-156z" />
<glyph unicode="&#xaf;" horiz-adv-x="1032" d="M276 1212l39 238h848l-39 -238h-848z" />
<glyph unicode="&#xb0;" horiz-adv-x="763" d="M225 1133q0 137 101 231q101 98 235 98q136 0 234 -98q100 -93 100 -231q0 -135 -100 -232q-101 -96 -234 -96q-131 0 -235 96q-101 98 -101 232zM425 1132.5q0 -59.5 38 -100.5q41 -38 98.5 -38t95.5 38q38 41 38 100.5t-38 100.5t-95.5 41t-98.5 -41 q-38 -41 -38 -100.5z" />
<glyph unicode="&#xb1;" horiz-adv-x="1257" d="M92 0l51 324h1074l-52 -324h-1073zM213 772l51 324h375l53 338h324l-53 -338h374l-51 -324h-375l-51 -326h-323l51 326h-375z" />
<glyph unicode="&#xb2;" horiz-adv-x="708" d="M178 659l25 156l239 184q82 62 113 99.5t31 75.5q0 77 -103 77q-106 0 -213 -73l35 217q94 55 225 55q120 0 199.5 -66.5t79.5 -179.5q0 -81 -47 -149t-152 -144l-96 -69h281l-29 -183h-588z" />
<glyph unicode="&#xb3;" horiz-adv-x="677" d="M154 715l34 198q86 -77 226 -77q63 0 104 25t41 71q0 34 -31.5 57t-85.5 23q-74 0 -125 -23l21 133l180 127h-256l33 185h528l-26 -160l-168 -127q63 -27 103 -79.5t40 -127.5q0 -133 -95.5 -215t-248.5 -82q-170 0 -274 72z" />
<glyph unicode="&#xb4;" horiz-adv-x="901" d="M436 1180l244 311h428l-371 -311h-301z" />
<glyph unicode="&#xb5;" horiz-adv-x="1302" d="M59 -410l230 1450h362l-82 -522q-8 -47 -8 -86q0 -66 35.5 -100.5t93.5 -34.5q98 0 180 88l105 655h362l-163 -1040h-363l18 119q-155 -146 -327 -146h-21l-59 -383h-363z" />
<glyph unicode="&#xb6;" horiz-adv-x="1224" d="M205 938q0 220 172 358q173 138 411 138h525l-226 -1434h-368l88 561h-156q-206 0 -326 104.5t-120 272.5z" />
<glyph unicode="&#xb7;" horiz-adv-x="573" d="M199 803q0 90 61 151q64 64 154 64t151 -64q64 -61 64 -151t-64 -154q-60 -63 -151 -63t-154 63q-61 64 -61 154z" />
<glyph unicode="&#xb8;" horiz-adv-x="1056" d="M190 -311l263 338h286l-131 -338h-418z" />
<glyph unicode="&#xb9;" horiz-adv-x="546" d="M205 1112l35 211l229 111h211l-121 -775h-219l88 553z" />
<glyph unicode="&#xba;" horiz-adv-x="950" d="M211 1034q0 169 125 291q125 125 311 125q178 0 299 -109t121 -278q0 -168 -127 -295q-125 -125 -311 -125q-178 0 -299 109q-119 110 -119 282zM444 1028q0 -79 52.5 -130.5t130.5 -51.5q88 0 147.5 63.5t59.5 157.5q0 79 -51.5 128.5t-131.5 49.5q-88 0 -147.5 -62 t-59.5 -155z" />
<glyph unicode="&#xbb;" horiz-adv-x="1288" d="M63 66l400 471l-254 438h360l207 -365l-26 -178l-326 -366h-361zM592 66l399 471l-254 438h361l207 -365l-27 -178l-326 -366h-360z" />
<glyph unicode="&#xbc;" horiz-adv-x="1589" d="M205 0l1098 1434h245l-1097 -1434h-246zM205 1112l35 211l229 111h211l-121 -775h-219l88 553zM889 178l26 154l445 442h221l-70 -428h107l-29 -168h-104l-29 -178h-211l29 178h-385zM1135 346h165l33 191z" />
<glyph unicode="&#xbd;" horiz-adv-x="1681" d="M205 0l1098 1434h245l-1097 -1434h-246zM205 1112l35 211l229 111h211l-121 -775h-219l88 553zM1049 0l24 156l240 184q82 62 112.5 99t30.5 75q0 78 -102 78q-104 0 -213 -74l35 217q95 56 225 56q120 0 199 -66.5t79 -179.5q0 -81 -46.5 -149t-151.5 -144l-97 -70h281 l-29 -182h-587z" />
<glyph unicode="&#xbe;" horiz-adv-x="1667" d="M154 715l34 198q86 -77 226 -77q63 0 104 25t41 71q0 34 -31.5 57t-85.5 23q-74 0 -125 -23l21 133l180 127h-256l33 185h528l-26 -160l-168 -127q63 -27 103 -79.5t40 -127.5q0 -133 -95.5 -215t-248.5 -82q-170 0 -274 72zM285 0l1097 1434h246l-1098 -1434h-245z M967 178l26 154l445 442h221l-70 -428h107l-29 -168h-104l-29 -178h-211l29 178h-385zM1212 346h166l33 191z" />
<glyph unicode="&#xbf;" horiz-adv-x="1026" d="M61 -39q0 176 125 289t314 160l22 135h344l-49 -320q-102 -12 -225 -57q-70 -26 -111 -67t-41 -91q0 -110 217 -110q153 0 357 88l-51 -314q-184 -96 -408 -96q-204 0 -350 96q-144 94 -144 287zM522 852q0 90 62 152q63 63 153 63q92 0 152 -63q63 -60 63 -152 q0 -91 -63 -154q-60 -63 -152 -63q-90 0 -153 63q-62 65 -62 154z" />
<glyph unicode="&#xc0;" horiz-adv-x="1599" d="M20 0l830 1442h354l375 -1442h-387l-74 303h-532l-168 -303h-398zM633 1868h428l145 -312h-301zM750 598h299l-91 383z" />
<glyph unicode="&#xc1;" horiz-adv-x="1599" d="M20 0l830 1442h354l375 -1442h-387l-74 303h-532l-168 -303h-398zM750 598h299l-91 383zM901 1556l244 312h428l-371 -312h-301z" />
<glyph unicode="&#xc2;" horiz-adv-x="1599" d="M20 0l830 1442h354l375 -1442h-387l-74 303h-532l-168 -303h-398zM614 1556l310 312h342l204 -312h-292l-103 144l-145 -144h-316zM750 598h299l-91 383z" />
<glyph unicode="&#xc3;" horiz-adv-x="1599" d="M20 0l830 1442h354l375 -1442h-387l-74 303h-532l-168 -303h-398zM645 1559q21 131 107 223q88 94 202 94q67 0 138 -41q68 -39 114 -39q72 0 103 72h182q-21 -121 -109 -219q-88 -99 -198 -99q-71 0 -142 41t-112 41q-76 0 -103 -73h-182zM750 598h299l-91 383z" />
<glyph unicode="&#xc4;" horiz-adv-x="1599" d="M20 0l830 1442h354l375 -1442h-387l-74 303h-532l-168 -303h-398zM655 1714q0 73 52.5 124.5t126.5 51.5q75 0 126.5 -51t51.5 -125t-51.5 -126t-126.5 -52q-72 0 -125.5 52.5t-53.5 125.5zM750 598h299l-91 383zM1120 1714.5q0 73.5 51 124.5q54 51 127.5 51t124.5 -51 q54 -51 54 -124.5t-54 -127.5q-51 -51 -124.5 -51t-127.5 51q-51 54 -51 127.5z" />
<glyph unicode="&#xc5;" horiz-adv-x="1599" d="M20 0l830 1442h354l375 -1442h-387l-74 303h-532l-168 -303h-398zM750 598h299l-91 383zM819 1714q0 88 64 152q65 65 153 65q89 0 152 -63t63 -154q0 -88 -63 -151t-151 -63t-154 63q-64 64 -64 151zM944 1714q0 -37 27.5 -63.5t64.5 -26.5t63.5 26.5t26.5 63.5 q3 56 -43.5 79.5t-93.5 0t-45 -79.5z" />
<glyph unicode="&#xc6;" horiz-adv-x="2215" d="M6 0l995 1434h1328l-52 -324h-700l-31 -195h553l-49 -311h-553l-45 -280h719l-51 -324h-1086l45 289h-473l-198 -289h-402zM819 598h309l82 520h-34z" />
<glyph unicode="&#xc7;" horiz-adv-x="1378" d="M197 649q0 364 233 588q237 225 608 225q246 0 435 -88l-62 -346q-155 94 -375 94q-211 0 -336 -125q-125 -122 -125 -325q0 -158 105 -260q107 -101 287 -101q230 0 395 115l-57 -367q-127 -60 -269 -79l-112 -291h-418l233 303q-251 53 -397 227q-145 180 -145 430z " />
<glyph unicode="&#xc8;" d="M137 0l225 1434h1090l-51 -324h-721l-31 -195h574l-49 -311h-574l-43 -280h737l-51 -324h-1106zM559 1868h428l146 -312h-302z" />
<glyph unicode="&#xc9;" d="M137 0l225 1434h1090l-51 -324h-721l-31 -195h574l-49 -311h-574l-43 -280h737l-51 -324h-1106zM713 1556l243 312h428l-370 -312h-301z" />
<glyph unicode="&#xca;" d="M137 0l225 1434h1090l-51 -324h-721l-31 -195h574l-49 -311h-574l-43 -280h737l-51 -324h-1106zM508 1556l309 312h342l205 -312h-293l-102 144l-146 -144h-315z" />
<glyph unicode="&#xcb;" d="M137 0l225 1434h1090l-51 -324h-721l-31 -195h574l-49 -311h-574l-43 -280h737l-51 -324h-1106zM543 1714q0 73 52 124.5t126 51.5q75 0 126.5 -51t51.5 -125t-51.5 -126t-126.5 -52q-72 0 -125 52.5t-53 125.5zM1008 1714.5q0 73.5 51 124.5q54 51 127.5 51t124.5 -51 q54 -51 54 -124.5t-54 -127.5q-51 -51 -124.5 -51t-127.5 51q-51 54 -51 127.5z" />
<glyph unicode="&#xcc;" horiz-adv-x="659" d="M145 0l226 1434h368l-225 -1434h-369zM160 1868h428l145 -312h-301z" />
<glyph unicode="&#xcd;" horiz-adv-x="659" d="M145 0l226 1434h368l-225 -1434h-369zM428 1556l244 312h428l-371 -312h-301z" />
<glyph unicode="&#xce;" horiz-adv-x="659" d="M145 0l226 1434h368l-225 -1434h-369zM147 1556l310 312h342l205 -312h-293l-103 144l-145 -144h-316z" />
<glyph unicode="&#xcf;" horiz-adv-x="659" d="M145 0l226 1434h368l-225 -1434h-369zM188 1714q0 73 52.5 124.5t126.5 51.5q75 0 126.5 -51t51.5 -125t-51.5 -126t-126.5 -52q-72 0 -125.5 52.5t-53.5 125.5zM654 1714.5q0 73.5 51 124.5q54 51 127 51t124 -51q54 -51 54 -124.5t-54 -127.5q-51 -51 -124 -51t-127 51 q-51 54 -51 127.5z" />
<glyph unicode="&#xd0;" horiz-adv-x="1720" d="M168 606l49 305h182l82 523h527q327 0 526 -187q199 -184 199 -479q0 -332 -236 -549q-239 -219 -602 -219h-639l94 606h-182zM676 324h237q208 0 324 122q117 126 117 322q0 145 -99 244q-94 98 -258 98h-198l-31 -199h258l-49 -305h-258z" />
<glyph unicode="&#xd1;" horiz-adv-x="1574" d="M137 0l225 1434h314l500 -824l129 824h360l-225 -1434h-303l-508 827l-129 -827h-363zM637 1559q21 132 106 223q88 94 203 94q66 0 137 -41q68 -39 115 -39q71 0 102 72h183q-21 -121 -109 -219q-88 -99 -198 -99q-71 0 -142 41t-112 41q-76 0 -103 -73h-182z" />
<glyph unicode="&#xd2;" horiz-adv-x="1695" d="M197 666q0 338 229 567t563 229q330 0 522 -192q197 -194 197 -502q0 -338 -229 -567q-230 -230 -564 -230q-323 0 -522 193q-196 193 -196 502zM575 666q0 -149 95 -252t256 -103q177 0 291 129q112 130 112 328q0 148 -96 252q-94 102 -254 102q-178 0 -291 -131 t-113 -325zM676 1868h428l145 -312h-301z" />
<glyph unicode="&#xd3;" horiz-adv-x="1695" d="M197 666q0 338 229 567t563 229q330 0 522 -192q197 -194 197 -502q0 -338 -229 -567q-230 -230 -564 -230q-323 0 -522 193q-196 193 -196 502zM575 666q0 -149 95 -252t256 -103q177 0 291 129q112 130 112 328q0 148 -96 252q-94 102 -254 102q-178 0 -291 -131 t-113 -325zM926 1556l243 312h428l-370 -312h-301z" />
<glyph unicode="&#xd4;" horiz-adv-x="1695" d="M197 666q0 338 229 567t563 229q330 0 522 -192q197 -194 197 -502q0 -338 -229 -567q-230 -230 -564 -230q-323 0 -522 193q-196 193 -196 502zM575 666q0 -149 95 -252t256 -103q177 0 291 129q112 130 112 328q0 148 -96 252q-94 102 -254 102q-178 0 -291 -131 t-113 -325zM666 1556l309 312h342l205 -312h-293l-103 144l-145 -144h-315z" />
<glyph unicode="&#xd5;" horiz-adv-x="1695" d="M197 666q0 338 229 567t563 229q330 0 522 -192q197 -194 197 -502q0 -338 -229 -567q-230 -230 -564 -230q-323 0 -522 193q-196 193 -196 502zM575 666q0 -149 95 -252t256 -103q177 0 291 129q112 130 112 328q0 148 -96 252q-94 102 -254 102q-178 0 -291 -131 t-113 -325zM696 1559q21 131 107 223q88 94 203 94q66 0 137 -41q68 -39 114 -39q72 0 103 72h182q-21 -122 -108 -219q-88 -99 -199 -99q-70 0 -141 41t-113 41q-75 0 -102 -73h-183z" />
<glyph unicode="&#xd6;" horiz-adv-x="1695" d="M197 666q0 338 229 567t563 229q330 0 522 -192q197 -194 197 -502q0 -338 -229 -567q-230 -230 -564 -230q-323 0 -522 193q-196 193 -196 502zM575 666q0 -149 95 -252t256 -103q177 0 291 129q112 130 112 328q0 148 -96 252q-94 102 -254 102q-178 0 -291 -131 t-113 -325zM688 1714q0 73 52 124.5t126 51.5q75 0 126.5 -51t51.5 -125t-51.5 -126t-126.5 -52q-72 0 -125 52.5t-53 125.5zM1153 1714.5q0 73.5 51 124.5q54 51 127.5 51t124.5 -51q54 -51 54 -124.5t-54 -127.5q-51 -51 -124.5 -51t-127.5 51q-51 54 -51 127.5z" />
<glyph unicode="&#xd7;" horiz-adv-x="1257" d="M178 406l332 284l-240 287l258 223l240 -287l332 287l198 -235l-331 -287l239 -285l-256 -223l-241 287l-330 -287z" />
<glyph unicode="&#xd8;" horiz-adv-x="1695" d="M117 0l221 225q-141 182 -141 441q0 338 229 567t563 229q261 0 441 -125l94 97h276l-229 -234q137 -177 137 -432q0 -338 -229 -567q-230 -230 -564 -230q-249 0 -432 121l-90 -92h-276zM575 666q0 -86 35 -164l559 569q-80 51 -190 51q-178 0 -291 -131t-113 -325z M743 356q74 -45 183 -45q177 0 291 129q112 130 112 328q0 81 -31 154z" />
<glyph unicode="&#xd9;" horiz-adv-x="1495" d="M203 502q0 44 10 129l127 803h373l-129 -811q-11 -68 -11 -95q0 -104 66 -160.5t180 -56.5q110 0 185.5 64.5t95.5 189.5l137 869h371l-138 -871q-47 -287 -235 -438q-192 -154 -449 -154q-238 0 -413 140q-170 138 -170 391zM580 1868h428l145 -312h-301z" />
<glyph unicode="&#xda;" horiz-adv-x="1495" d="M203 502q0 44 10 129l127 803h373l-129 -811q-11 -68 -11 -95q0 -104 66 -160.5t180 -56.5q110 0 185.5 64.5t95.5 189.5l137 869h371l-138 -871q-47 -287 -235 -438q-192 -154 -449 -154q-238 0 -413 140q-170 138 -170 391zM831 1556l244 312h428l-370 -312h-302z" />
<glyph unicode="&#xdb;" horiz-adv-x="1495" d="M203 502q0 44 10 129l127 803h373l-129 -811q-11 -68 -11 -95q0 -104 66 -160.5t180 -56.5q110 0 185.5 64.5t95.5 189.5l137 869h371l-138 -871q-47 -287 -235 -438q-192 -154 -449 -154q-238 0 -413 140q-170 138 -170 391zM565 1556l309 312h343l204 -312h-293 l-102 144l-145 -144h-316z" />
<glyph unicode="&#xdc;" horiz-adv-x="1495" d="M203 502q0 44 10 129l127 803h373l-129 -811q-11 -68 -11 -95q0 -104 66 -160.5t180 -56.5q110 0 185.5 64.5t95.5 189.5l137 869h371l-138 -871q-47 -287 -235 -438q-192 -154 -449 -154q-238 0 -413 140q-170 138 -170 391zM608 1714q0 73 52 124.5t126 51.5 q75 0 127 -51t52 -125t-52 -126t-127 -52q-72 0 -125 52.5t-53 125.5zM1073 1714.5q0 73.5 51 124.5q54 51 127.5 51t124.5 -51q54 -51 54 -124.5t-54 -127.5q-51 -51 -124.5 -51t-127.5 51q-51 54 -51 127.5z" />
<glyph unicode="&#xdd;" horiz-adv-x="1490" d="M236 1434h411l246 -473l395 473h418l-676 -791l-100 -643h-369l101 635zM825 1556l244 312h428l-371 -312h-301z" />
<glyph unicode="&#xde;" horiz-adv-x="1380" d="M137 0l225 1434h369l-41 -269h285q223 0 348 -110q129 -108 129 -285q0 -222 -162 -362q-160 -142 -409 -142h-332l-43 -266h-369zM596 569h281q87 0 143.5 42t56.5 120q0 123 -153 123h-283z" />
<glyph unicode="&#xdf;" horiz-adv-x="1298" d="M125 0l156 979q37 230 190 356q157 127 375 127q116 0 217 -37q107 -35 182 -122q78 -90 78 -213q0 -111 -57.5 -200t-159.5 -130q86 -33 146.5 -117t60.5 -199q0 -207 -135 -333q-136 -127 -349 -127q-155 0 -215 32l43 279q64 -25 123 -25q79 0 131 54.5t52 138.5 q0 73 -53.5 121.5t-143.5 54.5l-41 2l39 236h43q70 0 115 42.5t45 110.5q0 52 -36.5 84.5t-101.5 32.5q-71 0 -121 -50t-67 -145l-152 -952h-364z" />
<glyph unicode="&#xe0;" horiz-adv-x="1239" d="M92 293q0 167 123 262q122 98 301 98q176 0 293 -63q4 36 4 57q0 137 -238 137q-153 0 -294 -63l45 285q158 61 358 61q211 0 350 -92q142 -92 142 -291q0 -16 -17 -135l-26 -156q-9 -47 -9 -71q0 -56 62 -56q23 0 53 10l-41 -251q-76 -48 -182 -48q-206 0 -246 119 q-123 -123 -311 -123q-169 0 -268 89t-99 231zM432 1491h428l146 -311h-301zM451 324q0 -51 38.5 -81t100.5 -30q108 0 172 82l18 111q-57 51 -157 51q-72 0 -122 -36t-50 -97z" />
<glyph unicode="&#xe1;" horiz-adv-x="1259" d="M92 293q0 167 123 262q122 98 301 98q176 0 293 -63q4 36 4 57q0 137 -238 137q-153 0 -294 -63l45 285q158 61 358 61q211 0 350 -92q142 -92 142 -291q0 -16 -17 -135l-26 -156q-9 -47 -9 -71q0 -56 62 -56q23 0 53 10l-41 -251q-76 -48 -182 -48q-206 0 -246 119 q-123 -123 -311 -123q-169 0 -268 89t-99 231zM451 324q0 -51 38.5 -81t100.5 -30q108 0 172 82l18 111q-57 51 -157 51q-72 0 -122 -36t-50 -97zM588 1180l243 311h429l-371 -311h-301z" />
<glyph unicode="&#xe2;" horiz-adv-x="1239" d="M92 293q0 167 123 262q122 98 301 98q176 0 293 -63q4 36 4 57q0 137 -238 137q-153 0 -294 -63l45 285q158 61 358 61q211 0 350 -92q142 -92 142 -291q0 -16 -17 -135l-26 -156q-9 -47 -9 -71q0 -56 62 -56q23 0 53 10l-41 -251q-76 -48 -182 -48q-206 0 -246 119 q-123 -123 -311 -123q-169 0 -268 89t-99 231zM346 1180l309 311h342l205 -311h-293l-102 143l-145 -143h-316zM451 324q0 -51 38.5 -81t100.5 -30q108 0 172 82l18 111q-57 51 -157 51q-72 0 -122 -36t-50 -97z" />
<glyph unicode="&#xe3;" horiz-adv-x="1251" d="M92 293q0 167 123 262q122 98 301 98q176 0 293 -63q4 36 4 57q0 137 -238 137q-153 0 -294 -63l45 285q158 61 358 61q211 0 350 -92q142 -92 142 -291q0 -16 -17 -135l-26 -156q-9 -47 -9 -71q0 -56 62 -56q23 0 53 10l-41 -251q-76 -48 -182 -48q-206 0 -246 119 q-123 -123 -311 -123q-169 0 -268 89t-99 231zM406 1180q21 134 106 225q85 94 201 94q66 0 137 -41q71 -39 117 -39q71 0 102 72h182q-21 -121 -108 -221q-89 -99 -199 -99q-70 0 -141 41t-113 41q-75 0 -102 -73h-182zM451 324q0 -51 38.5 -81t100.5 -30q108 0 172 82 l18 111q-57 51 -157 51q-72 0 -122 -36t-50 -97z" />
<glyph unicode="&#xe4;" horiz-adv-x="1239" d="M92 293q0 167 123 262q122 98 301 98q176 0 293 -63q4 36 4 57q0 137 -238 137q-153 0 -294 -63l45 285q158 61 358 61q211 0 350 -92q142 -92 142 -291q0 -16 -17 -135l-26 -156q-9 -47 -9 -71q0 -56 62 -56q23 0 53 10l-41 -251q-76 -48 -182 -48q-206 0 -246 119 q-123 -123 -311 -123q-169 0 -268 89t-99 231zM373 1337q0 73 52 124.5t126 51.5q75 0 126.5 -51t51.5 -125t-51.5 -126t-126.5 -52q-72 0 -125 52.5t-53 125.5zM451 324q0 -51 38.5 -81t100.5 -30q108 0 172 82l18 111q-57 51 -157 51q-72 0 -122 -36t-50 -97zM838 1337.5 q0 73.5 51 124.5q54 51 127.5 51t124.5 -51q54 -51 54 -124.5t-54 -127.5q-51 -51 -124.5 -51t-127.5 51q-51 54 -51 127.5z" />
<glyph unicode="&#xe5;" horiz-adv-x="1239" d="M92 293q0 167 123 262q122 98 301 98q176 0 293 -63q4 36 4 57q0 137 -238 137q-153 0 -294 -63l45 285q158 61 358 61q211 0 350 -92q142 -92 142 -291q0 -16 -17 -135l-26 -156q-9 -47 -9 -71q0 -56 62 -56q23 0 53 10l-41 -251q-76 -48 -182 -48q-206 0 -246 119 q-123 -123 -311 -123q-169 0 -268 89t-99 231zM451 324q0 -51 38.5 -81t100.5 -30q108 0 172 82l18 111q-57 51 -157 51q-72 0 -122 -36t-50 -97zM590 1335q0 91 63 154t154 63q88 0 151 -63q64 -64 64 -154q0 -88 -63.5 -151.5t-151.5 -63.5t-152.5 63.5t-64.5 151.5z M715 1335q0 -37 27.5 -63.5t64.5 -26.5t63.5 26.5t26.5 63.5q3 56 -43.5 79.5t-93.5 0t-45 -79.5z" />
<glyph unicode="&#xe6;" horiz-adv-x="1798" d="M92 289q0 167 123 266q125 98 301 98t293 -63q4 36 4 57q0 137 -238 137q-153 0 -294 -63l45 285q158 61 358 61q204 0 338 -119q149 119 330 119q212 0 344 -123q133 -124 133 -321q0 -66 -23 -191h-696q10 -79 89 -120.5t202 -41.5q166 0 332 84l-43 -282 q-135 -99 -392 -99q-265 0 -415 170q-167 -170 -420 -170q-174 0 -272.5 87t-98.5 229zM451 324q0 -51 38.5 -81t100.5 -30q67 0 121.5 26t79.5 68q-19 53 -25 105q-60 45 -145 45q-72 0 -121 -36t-49 -97zM1137 625h346q5 80 -35 128t-113 48q-70 0 -124 -47.5t-74 -128.5z " />
<glyph unicode="&#xe7;" horiz-adv-x="1048" d="M133 485q0 249 180 414q180 168 451 168q188 0 336 -80l-49 -301q-135 66 -258 66q-131 0 -215 -69t-84 -181t86 -168q88 -55 198 -55q121 0 234 49l-49 -301q-104 -41 -191 -50l-110 -288h-418l243 315q-163 51 -258.5 176.5t-95.5 304.5z" />
<glyph unicode="&#xe8;" horiz-adv-x="1167" d="M133 473q0 256 168 424q170 170 420 170q212 0 344 -123q133 -124 133 -321q0 -72 -22 -191h-697q10 -79 89 -120.5t202 -41.5q166 0 332 84l-43 -282q-135 -99 -391 -99q-230 0 -383 138q-152 140 -152 362zM449 1491h428l145 -311h-301zM506 625h346q5 80 -34.5 128 t-112.5 48q-70 0 -124.5 -47.5t-74.5 -128.5z" />
<glyph unicode="&#xe9;" horiz-adv-x="1167" d="M133 473q0 256 168 424q170 170 420 170q212 0 344 -123q133 -124 133 -321q0 -72 -22 -191h-697q10 -79 89 -120.5t202 -41.5q166 0 332 84l-43 -282q-135 -99 -391 -99q-230 0 -383 138q-152 140 -152 362zM506 625h346q5 80 -34.5 128t-112.5 48q-70 0 -124.5 -47.5 t-74.5 -128.5zM565 1180l244 311h428l-371 -311h-301z" />
<glyph unicode="&#xea;" horiz-adv-x="1167" d="M133 473q0 256 168 424q170 170 420 170q212 0 344 -123q133 -124 133 -321q0 -72 -22 -191h-697q10 -79 89 -120.5t202 -41.5q166 0 332 84l-43 -282q-135 -99 -391 -99q-230 0 -383 138q-152 140 -152 362zM352 1180l310 311h342l204 -311h-293l-102 143l-145 -143 h-316zM506 625h346q5 80 -34.5 128t-112.5 48q-70 0 -124.5 -47.5t-74.5 -128.5z" />
<glyph unicode="&#xeb;" horiz-adv-x="1167" d="M133 473q0 256 168 424q170 170 420 170q212 0 344 -123q133 -124 133 -321q0 -72 -22 -191h-697q10 -79 89 -120.5t202 -41.5q166 0 332 84l-43 -282q-135 -99 -391 -99q-230 0 -383 138q-152 140 -152 362zM373 1337q0 73 52 124.5t126 51.5q75 0 126.5 -51t51.5 -125 t-51.5 -126t-126.5 -52q-72 0 -125 52.5t-53 125.5zM506 625h346q5 80 -34.5 128t-112.5 48q-70 0 -124.5 -47.5t-74.5 -128.5zM838 1337.5q0 73.5 51 124.5q54 51 127.5 51t124.5 -51q54 -51 54 -124.5t-54 -127.5q-51 -51 -124.5 -51t-127.5 51q-51 54 -51 127.5z" />
<glyph unicode="&#xec;" horiz-adv-x="567" d="M51 1491h428l146 -311h-301zM102 0l164 1040h363l-164 -1040h-363z" />
<glyph unicode="&#xed;" horiz-adv-x="567" d="M102 0l164 1040h363l-164 -1040h-363zM315 1182l242 309h424l-367 -309h-299z" />
<glyph unicode="&#xee;" horiz-adv-x="567" d="M39 1180l309 311h342l205 -311h-293l-102 143l-146 -143h-315zM102 0l164 1040h363l-164 -1040h-363z" />
<glyph unicode="&#xef;" horiz-adv-x="567" d="M80 1337q0 73 52 124.5t126 51.5q75 0 126.5 -51t51.5 -125t-51.5 -126t-126.5 -52q-72 0 -125 52.5t-53 125.5zM102 0l164 1040h363l-164 -1040h-363zM545 1337.5q0 73.5 51 124.5q54 51 127.5 51t124.5 -51q54 -51 54 -124.5t-54 -127.5q-51 -51 -124.5 -51t-127.5 51 q-51 54 -51 127.5z" />
<glyph unicode="&#xf0;" horiz-adv-x="1239" d="M133 455q0 206 135 344q136 139 350 139q102 0 183 -37l-129 180l-242 -77l-115 170l236 75l-133 185h377l61 -86l201 63l114 -170l-200 -63l102 -148q106 -151 148 -256q45 -105 45 -223q0 -240 -164 -410q-162 -168 -434 -168q-222 0 -379 127q-156 126 -156 355z M492 469q0 -81 54 -134.5t140 -53.5q92 0 153.5 60t61.5 155q0 83 -53.5 136.5t-140.5 53.5q-92 0 -153.5 -60.5t-61.5 -156.5z" />
<glyph unicode="&#xf1;" horiz-adv-x="1277" d="M125 0l164 1040h362l-18 -116q149 143 328 143q146 0 230.5 -94.5t84.5 -251.5q0 -73 -12 -146l-90 -575h-363l82 522q8 47 8 86q0 66 -35.5 100.5t-93.5 34.5q-98 0 -180 -88l-105 -655h-362zM438 1180q21 133 107 225q85 94 200 94q67 0 138 -41q71 -39 116 -39 q72 0 103 72h182q-21 -121 -108 -221q-88 -99 -199 -99q-70 0 -141 41t-113 41q-75 0 -102 -73h-183z" />
<glyph unicode="&#xf2;" horiz-adv-x="1241" d="M133 500q0 228 166 397q167 170 414 170q241 0 397 -147q158 -146 158 -377t-166 -400q-167 -170 -416 -170q-239 0 -397 146q-156 147 -156 381zM397 1491h428l146 -311h-301zM479 492q0 -95 58 -154t147 -59q97 0 168 77q70 79 70 195q0 95 -59 153t-148 58 q-97 0 -168 -80q-68 -77 -68 -190z" />
<glyph unicode="&#xf3;" horiz-adv-x="1280" d="M133 500q0 228 166 397q167 170 414 170q241 0 397 -147q158 -146 158 -377t-166 -400q-167 -170 -416 -170q-239 0 -397 146q-156 147 -156 381zM479 492q0 -95 58 -154t147 -59q97 0 168 77q70 79 70 195q0 95 -59 153t-148 58q-97 0 -168 -80q-68 -77 -68 -190z M635 1180l244 311h428l-371 -311h-301z" />
<glyph unicode="&#xf4;" horiz-adv-x="1241" d="M133 500q0 228 166 397q167 170 414 170q241 0 397 -147q158 -146 158 -377t-166 -400q-167 -170 -416 -170q-239 0 -397 146q-156 147 -156 381zM375 1180l309 311h342l205 -311h-293l-102 143l-146 -143h-315zM479 492q0 -95 58 -154t147 -59q97 0 168 77q70 79 70 195 q0 95 -59 153t-148 58q-97 0 -168 -80q-68 -77 -68 -190z" />
<glyph unicode="&#xf5;" horiz-adv-x="1241" d="M133 500q0 228 166 397q167 170 414 170q241 0 397 -147q158 -146 158 -377t-166 -400q-167 -170 -416 -170q-239 0 -397 146q-156 147 -156 381zM408 1180q21 134 106 225q85 94 201 94q66 0 137 -41q71 -39 117 -39q71 0 102 72h182q-21 -121 -108 -221 q-89 -99 -199 -99q-70 0 -141 41t-113 41q-75 0 -102 -73h-182zM479 492q0 -95 58 -154t147 -59q97 0 168 77q70 79 70 195q0 95 -59 153t-148 58q-97 0 -168 -80q-68 -77 -68 -190z" />
<glyph unicode="&#xf6;" horiz-adv-x="1241" d="M133 500q0 228 166 397q167 170 414 170q241 0 397 -147q158 -146 158 -377t-166 -400q-167 -170 -416 -170q-239 0 -397 146q-156 147 -156 381zM412 1337q0 73 52 124.5t126 51.5q75 0 126.5 -51t51.5 -125t-51.5 -126t-126.5 -52q-72 0 -125 52.5t-53 125.5zM479 492 q0 -95 58 -154t147 -59q97 0 168 77q70 79 70 195q0 95 -59 153t-148 58q-97 0 -168 -80q-68 -77 -68 -190zM877 1337.5q0 73.5 51 124.5q54 51 127.5 51t124.5 -51q54 -51 54 -124.5t-54 -127.5q-51 -51 -124.5 -51t-127.5 51q-51 54 -51 127.5z" />
<glyph unicode="&#xf7;" horiz-adv-x="1257" d="M174 514l51 320h1073l-51 -320h-1073zM436 190q0 91 63 154.5t154 63.5q90 0 152.5 -63.5t62.5 -154.5q0 -88 -63.5 -151.5t-151.5 -63.5q-89 0 -153 64t-64 151zM590 1155q0 91 63 154t154 63t153 -63t62 -154t-62 -153t-153 -62q-90 0 -154 64q-63 63 -63 151z" />
<glyph unicode="&#xf8;" horiz-adv-x="1310" d="M70 0l188 184q-98 131 -98 316q0 228 166 397q167 170 413 170q187 0 330 -94l68 67h247l-190 -184q100 -132 100 -313q0 -231 -166 -400q-167 -170 -415 -170q-188 0 -328 93l-68 -66h-247zM506 492q0 -33 6 -60l319 311q-43 19 -90 19q-97 0 -168 -80q-67 -76 -67 -190 zM621 297q41 -18 90 -18q97 0 168 77q69 78 69 195q0 30 -6 57z" />
<glyph unicode="&#xf9;" horiz-adv-x="1273" d="M158 319q0 72 12 146l90 575h363l-82 -522q-9 -52 -9 -86q0 -66 36 -100.5t94 -34.5q98 0 180 88l104 655h363l-164 -1040h-363l19 119q-155 -146 -328 -146q-146 0 -230.5 94.5t-84.5 251.5zM438 1491h428l146 -311h-301z" />
<glyph unicode="&#xfa;" horiz-adv-x="1273" d="M158 319q0 72 12 146l90 575h363l-82 -522q-9 -52 -9 -86q0 -66 36 -100.5t94 -34.5q98 0 180 88l104 655h363l-164 -1040h-363l19 119q-155 -146 -328 -146q-146 0 -230.5 94.5t-84.5 251.5zM608 1180l244 311h428l-371 -311h-301z" />
<glyph unicode="&#xfb;" horiz-adv-x="1273" d="M158 319q0 72 12 146l90 575h363l-82 -522q-9 -52 -9 -86q0 -66 36 -100.5t94 -34.5q98 0 180 88l104 655h363l-164 -1040h-363l19 119q-155 -146 -328 -146q-146 0 -230.5 94.5t-84.5 251.5zM377 1180l309 311h342l205 -311h-293l-102 143l-146 -143h-315z" />
<glyph unicode="&#xfc;" horiz-adv-x="1273" d="M158 319q0 72 12 146l90 575h363l-82 -522q-9 -52 -9 -86q0 -66 36 -100.5t94 -34.5q98 0 180 88l104 655h363l-164 -1040h-363l19 119q-155 -146 -328 -146q-146 0 -230.5 94.5t-84.5 251.5zM395 1337q0 73 52 124.5t126 51.5q75 0 127 -51t52 -125t-52 -126t-127 -52 q-72 0 -125 52.5t-53 125.5zM860 1337.5q0 73.5 51 124.5q54 51 127.5 51t124.5 -51q54 -51 54 -124.5t-54 -127.5q-51 -51 -124.5 -51t-127.5 51q-51 54 -51 127.5z" />
<glyph unicode="&#xfd;" horiz-adv-x="1247" d="M43 -375l49 312q71 -50 160 -50q146 0 229 148l-297 1005h377l146 -626l301 626h383l-629 -1144q-176 -318 -496 -318q-134 0 -223 47zM616 1180l244 311h428l-370 -311h-302z" />
<glyph unicode="&#xfe;" d="M59 -410l293 1844h363l-82 -506q130 139 315 139q186 0 301 -139q117 -138 117 -342q0 -154 -61 -291q-62 -142 -191 -232t-291 -90q-201 0 -319 142l-82 -525h-363zM549 391q27 -49 86 -82t125 -33q97 0 166 78t69 195q0 97 -53.5 154t-142.5 57q-133 0 -209 -111z" />
<glyph unicode="&#xff;" horiz-adv-x="1247" d="M43 -375l49 312q71 -50 160 -50q146 0 229 148l-297 1005h377l146 -626l301 626h383l-629 -1144q-176 -318 -496 -318q-134 0 -223 47zM399 1337q0 73 52.5 124.5t126.5 51.5q75 0 126.5 -51t51.5 -125t-51.5 -126t-126.5 -52q-72 0 -125.5 52.5t-53.5 125.5zM864 1337.5 q0 73.5 51 124.5q54 51 127.5 51t124.5 -51q54 -51 54 -124.5t-54 -127.5q-51 -51 -124.5 -51t-127.5 51q-51 54 -51 127.5z" />
<glyph unicode="&#x2c6;" horiz-adv-x="1118" d="M319 1180l310 311h342l205 -311h-293l-103 143l-145 -143h-316z" />
<glyph unicode="&#x2da;" horiz-adv-x="1157" d="M530 1335q0 90 64 154q63 63 154 63q88 0 151 -63q64 -64 64 -154q0 -88 -63.5 -151.5t-151.5 -63.5t-153 64t-65 151zM655 1335q0 -36 28 -63t65 -27t63.5 26.5t26.5 63.5q3 56 -44 79.5t-94 0t-45 -79.5z" />
<glyph unicode="&#x2dc;" horiz-adv-x="1036" d="M301 1180q21 133 107 225q85 94 200 94q66 0 137 -41q71 -39 117 -39q72 0 103 72h182q-21 -119 -109 -221q-88 -99 -198 -99q-71 0 -142 41t-112 41q-76 0 -103 -73h-182z" />
<glyph unicode="&#x401;" d="M137 0l225 1434h1090l-51 -324h-721l-31 -195h574l-49 -311h-574l-43 -280h737l-51 -324h-1106zM549 1714q0 73 52 124.5t126 51.5q75 0 126.5 -51t51.5 -125t-51.5 -126t-126.5 -52q-72 0 -125 52.5t-53 125.5zM1014 1714.5q0 73.5 51 124.5q54 51 127.5 51t124.5 -51 q54 -51 54 -124.5t-54 -127.5q-51 -51 -124.5 -51t-127.5 51q-51 54 -51 127.5z" />
<glyph unicode="&#x402;" horiz-adv-x="1607" d="M231 1118l52 316h1106l-52 -316h-409l-39 -248q116 35 258 35q227 0 362 -123q136 -124 136 -323q0 -218 -152 -346q-151 -127 -393 -127q-84 0 -166 16l45 281q47 -13 98 -13q84 0 140.5 42t56.5 112q0 71 -54 109t-149 38q-130 0 -237 -49l-80 -522h-369l174 1118h-328 z" />
<glyph unicode="&#x403;" horiz-adv-x="1267" d="M137 0l228 1434h1058l-51 -324h-690l-176 -1110h-369zM700 1556l244 312h428l-371 -312h-301z" />
<glyph unicode="&#x404;" horiz-adv-x="1394" d="M197 649q0 364 233 588q237 225 610 225q121 0 247 -25.5t202 -64.5l-57 -346q-158 96 -394 96q-163 0 -273 -59.5t-151 -173.5h506l-45 -297h-493q13 -135 113.5 -208t271.5 -73q213 0 389 105l-58 -357q-186 -88 -368 -88q-327 0 -531 189q-202 190 -202 489z" />
<glyph unicode="&#x405;" horiz-adv-x="1294" d="M106 125l60 377q79 -82 231 -140q152 -57 295 -57q46 0 90 6q51 7 94.5 39.5t43.5 79.5q0 45 -56 76q-15 13 -88 35l-119 37l-129 43q-34 13 -112 53q-71 41 -101 74q-38 41 -63 103.5t-25 133.5q0 236 170 356q174 121 441 121q295 0 499 -116l-57 -355q-75 53 -215 96 q-134 41 -258 41q-199 0 -199 -98q0 -37 62 -63q4 -1 27.5 -10t37.5 -13q45 -10 189 -55q190 -65 285.5 -160.5t95.5 -249.5q0 -234 -183 -373q-182 -135 -450 -135q-365 0 -566 154z" />
<glyph unicode="&#x406;" horiz-adv-x="659" d="M145 0l226 1434h368l-225 -1434h-369z" />
<glyph unicode="&#x407;" horiz-adv-x="659" d="M145 0l226 1434h368l-225 -1434h-369zM188 1714q0 73 52.5 124.5t126.5 51.5q75 0 126.5 -51t51.5 -125t-51.5 -126t-126.5 -52q-72 0 -125.5 52.5t-53.5 125.5zM654 1714.5q0 73.5 51 124.5q54 51 127 51t124 -51q54 -51 54 -124.5t-54 -127.5q-51 -51 -124 -51t-127 51 q-51 54 -51 127.5z" />
<glyph unicode="&#x408;" horiz-adv-x="1052" d="M59 63l58 357q47 -47 126.5 -78t151.5 -31q112 0 174 63t86 210l136 850h368l-153 -959q-20 -118 -60.5 -207t-93.5 -145t-123 -90.5t-142.5 -48t-158.5 -13.5q-93 0 -205 25q-105 23 -164 67z" />
<glyph unicode="&#x409;" horiz-adv-x="2248" d="M14 16l54 338q51 -26 102 -26q109 0 162 133q55 140 121 555l67 418h1073l-69 -443h258q234 0 368 -125q136 -127 136 -313q0 -245 -195 -399t-465 -154h-627l175 1110h-349l-24 -158q-88 -561 -223 -753q-150 -211 -414 -211q-102 0 -150 28zM1417 315h232q101 0 180 54 q80 56 80 155q0 76 -53.5 122t-143.5 46h-235z" />
<glyph unicode="&#x40a;" horiz-adv-x="2275" d="M137 0l225 1434h369l-80 -510h518l82 510h369l-70 -443h258q235 0 369 -125q135 -126 135 -313q0 -246 -194 -399q-195 -154 -465 -154h-627l92 596h-518l-94 -596h-369zM1444 315h231q101 0 180 54q80 56 80 155q0 76 -53 122t-143 46h-236z" />
<glyph unicode="&#x40b;" horiz-adv-x="1665" d="M231 1118l50 316h1105l-49 -316h-409l-39 -252q124 39 280 39q229 0 352.5 -99.5t123.5 -283.5q0 -34 -9 -96l-67 -426h-369l60 373q1 9 2 19.5t1.5 16t0.5 9.5q0 153 -191 153q-138 0 -239 -49l-82 -522h-369l176 1118h-328z" />
<glyph unicode="&#x40c;" horiz-adv-x="1505" d="M137 0l225 1434h369l-86 -547l522 547h459l-649 -686l530 -748h-440l-461 637l-100 -637h-369zM782 1556l244 312h428l-371 -312h-301z" />
<glyph unicode="&#x40e;" horiz-adv-x="1406" d="M160 27l49 315q74 -45 180 -45q78 0 130 33t112 119l-395 985h397l229 -623l342 623h402l-674 -1119q-206 -344 -526 -344q-157 0 -246 56zM610 1823q0 3 4 53h230v-12q0 -58 29.5 -91.5t84.5 -33.5q57 0 98.5 37.5t55.5 99.5h229q-30 -164 -138 -257t-259 -93 q-145 0 -239.5 80.5t-94.5 216.5z" />
<glyph unicode="&#x40f;" horiz-adv-x="1501" d="M137 0l225 1434h369l-176 -1110h492l176 1110h368l-225 -1434h-440l-45 -279h-349l46 279h-441z" />
<glyph unicode="&#x410;" horiz-adv-x="1599" d="M20 0l830 1442h354l375 -1442h-387l-74 303h-532l-168 -303h-398zM750 598h299l-91 383z" />
<glyph unicode="&#x411;" horiz-adv-x="1400" d="M137 0l225 1434h1072l-50 -316h-700l-25 -155h267q226 0 358 -123q131 -119 131 -305q0 -241 -188 -388q-187 -147 -453 -147h-637zM557 315h238q96 0 170 50q75 51 75 147q0 73 -50.5 117.5t-137.5 44.5h-238z" />
<glyph unicode="&#x412;" horiz-adv-x="1458" d="M137 0l225 1434h660q189 0 301.5 -83t112.5 -235q0 -104 -52.5 -190t-148.5 -133q90 -21 162 -109q71 -86 71 -219q0 -211 -157 -338t-400 -127h-774zM553 307h317q87 0 143 46t56 124q0 61 -45.5 98t-120.5 37h-301zM645 885h264q73 0 117.5 37.5t44.5 103.5 q0 51 -36.5 80t-98.5 29h-252z" />
<glyph unicode="&#x413;" horiz-adv-x="1267" d="M137 0l228 1434h1058l-51 -324h-690l-176 -1110h-369z" />
<glyph unicode="&#x414;" horiz-adv-x="1622" d="M-33 -279l92 603h144q203 272 291 854l38 256h1074l-176 -1110h188l-94 -603h-348l45 279h-865l-45 -279h-344zM604 324h457l125 786h-336q-82 -490 -246 -786z" />
<glyph unicode="&#x415;" d="M137 0l225 1434h1090l-51 -324h-721l-31 -195h574l-49 -311h-574l-43 -280h737l-51 -324h-1106z" />
<glyph unicode="&#x416;" horiz-adv-x="2220" d="M31 0l688 748l-365 686h414l291 -588l92 588h369l-95 -588l476 588h448l-610 -725l442 -709h-442l-353 596l-92 -596h-368l94 596l-520 -596h-469z" />
<glyph unicode="&#x417;" horiz-adv-x="1296" d="M111 113l55 354q213 -162 475 -162q131 0 210 44.5t79 127.5q0 123 -213 123h-213l45 293h213q196 0 196 119q0 116 -215 116q-258 0 -487 -131l53 344q230 121 494 121q250 0 387 -110q139 -109 139 -281q0 -100 -55 -182.5t-152 -126.5q185 -92 185 -291 q0 -118 -60.5 -215.5t-158.5 -158t-215.5 -93.5t-239.5 -33q-324 0 -522 142z" />
<glyph unicode="&#x418;" horiz-adv-x="1552" d="M137 0l225 1434h369l-125 -789l717 789h319l-225 -1434h-368l127 797l-730 -797h-309z" />
<glyph unicode="&#x419;" horiz-adv-x="1552" d="M137 0l225 1434h369l-125 -789l717 789h319l-225 -1434h-368l127 797l-730 -797h-309zM680 1806q0 8 4 62h248q0 -3 -1 -11.5t-1 -11.5q0 -50 31 -78t88 -28q63 0 104.5 34.5t52.5 94.5h252q-30 -168 -145.5 -264.5t-278.5 -96.5q-149 0 -252 80q-102 83 -102 219z" />
<glyph unicode="&#x41a;" horiz-adv-x="1505" d="M137 0l225 1434h369l-86 -547l522 547h459l-649 -686l530 -748h-440l-461 637l-100 -637h-369z" />
<glyph unicode="&#x41b;" horiz-adv-x="1503" d="M14 16l54 338q51 -26 102 -26q109 0 162 133q55 140 121 555l67 418h1073l-225 -1434h-369l175 1110h-349l-24 -158q-88 -561 -223 -753q-150 -211 -414 -211q-102 0 -150 28z" />
<glyph unicode="&#x41c;" horiz-adv-x="1730" d="M137 0l225 1434h355l278 -551l449 551h377l-226 -1434h-366l137 874l-313 -385h-203l-207 385l-137 -874h-369z" />
<glyph unicode="&#x41d;" horiz-adv-x="1552" d="M137 0l228 1434h368l-82 -510h541l82 510h368l-227 -1434h-368l94 596h-541l-94 -596h-369z" />
<glyph unicode="&#x41e;" horiz-adv-x="1695" d="M197 666q0 338 229 567t563 229q330 0 522 -192q197 -194 197 -502q0 -338 -229 -567q-230 -230 -564 -230q-323 0 -522 193q-196 193 -196 502zM575 666q0 -149 95 -252t256 -103q177 0 291 129q112 130 112 328q0 148 -96 252q-94 102 -254 102q-178 0 -291 -131 t-113 -325z" />
<glyph unicode="&#x41f;" horiz-adv-x="1513" d="M137 0l225 1434h1242l-226 -1434h-368l174 1110h-504l-174 -1110h-369z" />
<glyph unicode="&#x420;" horiz-adv-x="1345" d="M137 0l225 1434h615q222 0 348 -111q129 -108 129 -285q0 -222 -162 -362q-159 -141 -409 -141h-293l-84 -535h-369zM637 838h242q87 0 143.5 41.5t56.5 119.5q0 123 -153 123h-244z" />
<glyph unicode="&#x421;" horiz-adv-x="1378" d="M197 649q0 364 233 588q237 225 608 225q246 0 435 -88l-62 -346q-155 94 -375 94q-211 0 -336 -125q-125 -122 -125 -325q0 -158 105 -260q107 -101 287 -101q230 0 395 115l-57 -367q-186 -88 -375 -88q-327 0 -531 189q-202 190 -202 489z" />
<glyph unicode="&#x422;" horiz-adv-x="1345" d="M231 1110l52 324h1230l-51 -324h-432l-174 -1110h-369l175 1110h-431z" />
<glyph unicode="&#x423;" horiz-adv-x="1406" d="M160 27l49 315q74 -45 180 -45q78 0 130 33t112 119l-395 985h397l229 -623l342 623h402l-674 -1119q-206 -344 -526 -344q-157 0 -246 56z" />
<glyph unicode="&#x424;" horiz-adv-x="1935" d="M197 682q0 308 225 496q227 190 567 190h-2l21 127h370l-20 -137q283 -35 436.5 -190.5t153.5 -393.5q0 -308 -228 -498q-226 -188 -565 -188l-22 -149h-371l24 159q-281 35 -435 191t-154 393zM580 696q0 -122 71.5 -196t186.5 -80l100 627q-157 0 -258 -101 q-100 -100 -100 -250zM1206 410q156 0 256 100q103 103 103 250q0 122 -71.5 196t-186.5 80z" />
<glyph unicode="&#x425;" horiz-adv-x="1507" d="M-10 0l669 770l-362 664h420l196 -369l314 369h434l-571 -662l428 -772h-418l-262 477l-408 -477h-440z" />
<glyph unicode="&#x426;" horiz-adv-x="1607" d="M137 0l225 1434h369l-176 -1110h492l176 1110h368l-176 -1110h189l-95 -603h-348l45 279h-1069z" />
<glyph unicode="&#x427;" horiz-adv-x="1417" d="M240 860q0 57 8 98l74 476h368l-65 -422q-1 -10 -2 -21.5t-1.5 -17.5t-0.5 -10q0 -150 188 -150q139 0 240 49l90 572h368l-225 -1434h-369l82 518q-124 -39 -280 -39q-229 0 -352 98.5t-123 282.5z" />
<glyph unicode="&#x428;" horiz-adv-x="2127" d="M137 0l225 1434h369l-176 -1110h375l176 1110h369l-177 -1110h375l176 1110h369l-225 -1434h-1856z" />
<glyph unicode="&#x429;" horiz-adv-x="2236" d="M137 0l225 1434h369l-176 -1110h375l176 1110h369l-177 -1110h375l176 1110h369l-174 -1110h188l-96 -603h-348l45 279h-1696z" />
<glyph unicode="&#x42a;" horiz-adv-x="1648" d="M221 1110l51 324h721l-69 -443h258q234 0 368 -125q136 -127 136 -313q0 -245 -195 -399t-465 -154h-627l174 1110h-352zM817 315h232q101 0 180 54q80 56 80 155q0 76 -53.5 122t-143.5 46h-235z" />
<glyph unicode="&#x42b;" horiz-adv-x="1943" d="M137 0l225 1434h369l-69 -443h212q235 0 369 -125q135 -126 135 -313q0 -246 -194 -399q-195 -154 -465 -154h-582zM555 315h186q102 0 181 54q79 55 79 155q0 76 -53 122t-143 46h-191zM1440 0l225 1434h369l-226 -1434h-368z" />
<glyph unicode="&#x42c;" horiz-adv-x="1386" d="M137 0l225 1434h369l-69 -443h258q234 0 368 -125q135 -126 135 -313q0 -246 -194 -399q-195 -154 -465 -154h-627zM555 315h231q102 0 181 54q80 56 80 155q0 76 -53.5 122t-143.5 46h-236z" />
<glyph unicode="&#x42d;" horiz-adv-x="1390" d="M111 61l57 347q160 -97 393 -97q171 0 284 72.5t154 208.5h-520l45 297h482q-67 233 -373 233q-215 0 -389 -104l57 356q186 88 369 88q328 0 530 -190q203 -188 203 -488q0 -363 -236 -587q-235 -226 -608 -226q-121 0 -246.5 25.5t-201.5 64.5z" />
<glyph unicode="&#x42e;" horiz-adv-x="2172" d="M137 0l225 1434h375l-86 -553h156q76 247 278 413q204 168 471 168q277 0 453 -194t176 -475q0 -208 -98 -394q-99 -187 -283 -307q-183 -121 -405 -121q-256 0 -426 164q-172 169 -199 418h-176l-86 -553h-375zM1145 651q0 -158 78 -251t211 -93q171 0 274 146 q102 144 102 329q0 159 -77.5 251.5t-210.5 92.5q-172 0 -275 -145q-102 -144 -102 -330z" />
<glyph unicode="&#x42f;" horiz-adv-x="1497" d="M29 0l514 588q-103 42 -162 137.5t-59 214.5q0 223 172 358q177 136 419 136h674l-225 -1434h-369l86 547h-145l-479 -547h-426zM698 967q0 -54 39 -86.5t105 -32.5h284l43 274h-284q-79 0 -133 -41.5t-54 -113.5z" />
<glyph unicode="&#x430;" horiz-adv-x="1239" d="M92 293q0 167 123 262q122 98 301 98q176 0 293 -63q4 36 4 57q0 137 -238 137q-153 0 -294 -63l45 285q158 61 358 61q211 0 350 -92q142 -92 142 -291q0 -16 -17 -135l-26 -156q-9 -47 -9 -71q0 -56 62 -56q23 0 53 10l-41 -251q-76 -48 -182 -48q-206 0 -246 119 q-123 -123 -311 -123q-169 0 -268 89t-99 231zM451 324q0 -51 38.5 -81t100.5 -30q108 0 172 82l18 111q-57 51 -157 51q-72 0 -122 -36t-50 -97z" />
<glyph unicode="&#x431;" horiz-adv-x="1247" d="M143 526q0 681 676 844q236 58 465 82l-51 -317l-262 -37q-106 -14 -170 -29.5t-133 -44.5q-136 -61 -174 -211q168 143 356 143q179 0 295 -122q117 -120 117 -304q0 -244 -168 -399q-169 -158 -428 -158q-245 0 -383 156q-140 158 -140 397zM489 487q0 -96 57.5 -156.5 t143.5 -60.5q91 0 151 66t60 164q0 76 -46.5 122t-125.5 46q-121 0 -231 -93q-9 -49 -9 -88z" />
<glyph unicode="&#x432;" horiz-adv-x="1212" d="M125 0l164 1040h610q144 0 223.5 -70t79.5 -177q0 -89 -46 -158t-114 -100q154 -68 154 -218q0 -156 -118 -236.5t-326 -80.5h-627zM524 238h176q61 0 97.5 30t36.5 84q0 37 -28 58.5t-75 21.5h-176zM586 631h129q56 0 89.5 28.5t33.5 75.5q0 74 -95 74h-129z" />
<glyph unicode="&#x433;" horiz-adv-x="995" d="M125 0l164 1040h850l-47 -290h-488l-117 -750h-362z" />
<glyph unicode="&#x434;" horiz-adv-x="1419" d="M4 -244l82 535h131q119 155 184 516l43 233h926l-119 -749h160l-84 -535h-342l39 244h-637l-39 -244h-344zM590 291h299l74 463h-232q-59 -294 -141 -463z" />
<glyph unicode="&#x435;" horiz-adv-x="1167" d="M133 473q0 256 168 424q170 170 420 170q212 0 344 -123q133 -124 133 -321q0 -72 -22 -191h-697q10 -79 89 -120.5t202 -41.5q166 0 332 84l-43 -282q-135 -99 -391 -99q-230 0 -383 138q-152 140 -152 362zM506 625h346q5 80 -34.5 128t-112.5 48q-70 0 -124.5 -47.5 t-74.5 -128.5z" />
<glyph unicode="&#x436;" horiz-adv-x="1837" d="M10 0l512 580l-268 460h385l203 -372l59 372h363l-60 -372l301 372h428l-444 -514l336 -526h-402l-258 416l-65 -416h-363l66 422l-344 -422h-449z" />
<glyph unicode="&#x437;" horiz-adv-x="1101" d="M96 55l45 281q143 -82 353 -82q100 0 161.5 26t61.5 70q0 64 -142 64h-204l37 241h204q119 0 119 70q0 63 -166 63q-180 0 -336 -69l41 262q183 86 387 86q198 0 326 -78q127 -77 127 -201q0 -88 -56.5 -153t-129.5 -78q69 -18 117.5 -77t48.5 -138q0 -155 -160 -264 q-159 -105 -408 -105q-277 0 -426 82z" />
<glyph unicode="&#x438;" horiz-adv-x="1325" d="M125 0l164 1040h362l-76 -489l445 489h340l-164 -1040h-362l75 487l-444 -487h-340z" />
<glyph unicode="&#x439;" horiz-adv-x="1325" d="M125 0l164 1040h362l-76 -489l445 489h340l-164 -1040h-362l75 487l-444 -487h-340zM504 1427q0 8 4 62h248q0 -3 -1 -11.5t-1 -11.5q0 -50 30.5 -78t87.5 -28q63 0 105 34.5t53 94.5h252q-30 -168 -145.5 -264.5t-278.5 -96.5q-149 0 -252 80q-102 82 -102 219z" />
<glyph unicode="&#x43a;" horiz-adv-x="1294" d="M125 0l164 1040h362l-57 -348l344 348h457l-490 -491l391 -549h-417l-324 440l-68 -440h-362z" />
<glyph unicode="&#x43b;" horiz-adv-x="1337" d="M41 14l49 297q19 -9 44.5 -11.5t55.5 5t50 27.5q36 36 59 106q25 67 41 144q20 94 37 196l45 262h950l-164 -1040h-362l117 750h-246q-23 -138 -58 -297q-47 -204 -165 -334q-119 -131 -304 -131q-104 0 -149 26z" />
<glyph unicode="&#x43c;" horiz-adv-x="1466" d="M125 0l164 1040h352l195 -342l301 342h364l-164 -1040h-342l88 557l-235 -266h-143l-150 266l-88 -557h-342z" />
<glyph unicode="&#x43d;" horiz-adv-x="1302" d="M125 0l164 1040h362l-57 -362h324l57 362h362l-163 -1040h-363l59 387h-323l-60 -387h-362z" />
<glyph unicode="&#x43e;" horiz-adv-x="1241" d="M133 500q0 228 166 397q167 170 414 170q241 0 397 -147q158 -146 158 -377t-166 -400q-167 -170 -416 -170q-239 0 -397 146q-156 147 -156 381zM479 492q0 -95 58 -154t147 -59q97 0 168 77q70 79 70 195q0 95 -59 153t-148 58q-97 0 -168 -80q-68 -77 -68 -190z" />
<glyph unicode="&#x43f;" horiz-adv-x="1292" d="M125 0l164 1040h1038l-164 -1040h-362l117 750h-314l-117 -750h-362z" />
<glyph unicode="&#x440;" d="M59 -410l230 1450h362l-18 -112q130 139 315 139q186 0 301 -139q117 -138 117 -342q0 -154 -61 -291q-62 -142 -191 -232t-291 -90q-201 0 -319 142l-82 -525h-363zM549 391q27 -49 86 -82t125 -33q97 0 166 78t69 195q0 97 -53.5 154t-142.5 57q-133 0 -209 -111z" />
<glyph unicode="&#x441;" horiz-adv-x="1048" d="M133 485q0 249 180 414q180 168 451 168q188 0 336 -80l-49 -301q-135 66 -258 66q-131 0 -215 -69t-84 -181t86 -168q88 -55 198 -55q121 0 234 49l-49 -301q-130 -54 -273 -54q-234 0 -397 138q-160 139 -160 374z" />
<glyph unicode="&#x442;" horiz-adv-x="980" d="M111 750l47 290h966l-47 -290h-303l-117 -750h-362l117 750h-301z" />
<glyph unicode="&#x443;" horiz-adv-x="1247" d="M43 -375l49 312q71 -50 160 -50q146 0 229 148l-297 1005h377l146 -626l301 626h383l-629 -1144q-176 -318 -496 -318q-134 0 -223 47z" />
<glyph unicode="&#x444;" horiz-adv-x="1597" d="M133 473q0 259 180 408q183 151 467 166l62 387h362l-61 -387q237 -32 359 -158t122 -322q0 -259 -182 -409q-180 -149 -465 -164l-57 -361h-363l57 361q-237 32 -359 157.5t-122 321.5zM485 485q0 -81 43.5 -133.5t126.5 -64.5l74 467q-106 -8 -175 -81t-69 -188z M1028 287q106 6 175 79.5t69 188.5q0 81 -43.5 134t-126.5 65z" />
<glyph unicode="&#x445;" horiz-adv-x="1255" d="M20 0l490 537l-297 503h385l141 -247l211 247h418l-455 -501l320 -539h-385l-160 279l-248 -279h-420z" />
<glyph unicode="&#x446;" horiz-adv-x="1384" d="M125 0l164 1040h362l-119 -749h322l119 749h362l-118 -749h159l-84 -535h-350l39 244h-856z" />
<glyph unicode="&#x447;" horiz-adv-x="1204" d="M176 616q0 52 8 91l58 333h362l-49 -305q-4 -36 -4 -45q0 -110 125 -110q80 0 131 26l70 434h362l-164 -1040h-362l47 309q-82 -24 -182 -24q-171 0 -287 82q-115 83 -115 249z" />
<glyph unicode="&#x448;" horiz-adv-x="1822" d="M125 0l164 1040h362l-119 -749h238l119 749h362l-118 -749h243l119 749h363l-164 -1040h-1569z" />
<glyph unicode="&#x449;" horiz-adv-x="1906" d="M125 0l164 1040h362l-119 -749h238l119 749h362l-118 -749h243l119 749h363l-119 -749h159l-83 -535h-326l39 244h-1403z" />
<glyph unicode="&#x44a;" horiz-adv-x="1351" d="M143 750l47 290h644l-46 -284h162q187 0 297.5 -89t110.5 -241q0 -185 -129 -305q-130 -121 -340 -121h-582l119 750h-283zM711 266h139q69 0 111.5 35t42.5 96q0 48 -35 76.5t-95 28.5h-126z" />
<glyph unicode="&#x44b;" horiz-adv-x="1685" d="M125 0l166 1040h362l-43 -284h135q187 0 297.5 -89t110.5 -241q0 -185 -129 -305q-130 -121 -340 -121h-559zM532 266h113q69 0 111.5 35t42.5 96q0 48 -34.5 76.5t-94.5 28.5h-101zM1194 0l164 1040h362l-164 -1040h-362z" />
<glyph unicode="&#x44c;" horiz-adv-x="1173" d="M125 0l166 1040h362l-45 -284h164q187 0 297.5 -89t110.5 -241q0 -185 -129 -305q-130 -121 -340 -121h-586zM532 266h140q69 0 111 35t42 96q0 48 -34.5 76.5t-94.5 28.5h-127z" />
<glyph unicode="&#x44d;" horiz-adv-x="1042" d="M100 39l47 283q117 -54 256 -54q223 0 291 140h-338l37 229h320q-44 139 -254 139q-115 0 -236 -53l45 285q121 59 287 59q214 0 363 -131q151 -130 151 -354q0 -259 -176 -435q-174 -174 -453 -174q-211 0 -340 66z" />
<glyph unicode="&#x44e;" horiz-adv-x="1746" d="M125 0l164 1040h362l-57 -360h125q58 169 207 278q148 109 331 109q226 0 371 -145q146 -146 146 -371q0 -236 -166 -408q-167 -170 -404 -170q-203 0 -342 115q-138 117 -168 305h-145l-62 -393h-362zM1034 485q0 -92 50 -149t126 -57q88 0 152 79q65 80 65 197 q0 92 -50 149.5t-126 57.5q-86 0 -151 -80q-66 -81 -66 -197z" />
<glyph unicode="&#x44f;" horiz-adv-x="1230" d="M29 0l317 389q-137 73 -137 256q0 192 137 293q138 102 348 102h572l-164 -1040h-363l52 324h-99l-260 -324h-403zM578 655q0 -38 28.5 -62t75.5 -24h147l31 195h-147q-58 0 -96.5 -28t-38.5 -81z" />
<glyph unicode="&#x451;" horiz-adv-x="1167" d="M133 473q0 256 168 424q170 170 420 170q212 0 344 -123q133 -124 133 -321q0 -72 -22 -191h-697q10 -79 89 -120.5t202 -41.5q166 0 332 84l-43 -282q-135 -99 -391 -99q-230 0 -383 138q-152 140 -152 362zM369 1337q0 73 52 124.5t126 51.5q75 0 126.5 -51t51.5 -125 t-51.5 -126t-126.5 -52q-72 0 -125 52.5t-53 125.5zM506 625h346q5 80 -34.5 128t-112.5 48q-70 0 -124.5 -47.5t-74.5 -128.5zM834 1337.5q0 73.5 51 124.5q54 51 127.5 51t124.5 -51q54 -51 54 -124.5t-54 -127.5q-51 -51 -124.5 -51t-127.5 51q-51 54 -51 127.5z" />
<glyph unicode="&#x452;" horiz-adv-x="1357" d="M170 1042l39 238h207l24 154h363l-25 -154h346l-39 -238h-346l-49 -309q155 146 328 146q146 0 230.5 -95t84.5 -252q0 -72 -12 -145l-66 -422q-31 -191 -152.5 -289t-320.5 -98q-166 0 -243 45l47 301q71 -39 149 -39q76 0 116 32.5t52 113.5l47 303q8 47 8 86 q0 66 -35.5 100.5t-93.5 34.5q-98 0 -180 -88l-74 -467h-362l164 1042h-207z" />
<glyph unicode="&#x453;" horiz-adv-x="995" d="M125 0l164 1040h850l-47 -290h-488l-117 -750h-362zM510 1180l244 311h428l-371 -311h-301z" />
<glyph unicode="&#x454;" horiz-adv-x="1046" d="M133 459q0 256 176 432t453 176q207 0 336 -66l-47 -282q-115 53 -252 53q-215 0 -291 -135h338l-37 -229h-324q41 -144 258 -144q119 0 240 53l-45 -284q-123 -60 -291 -60q-212 0 -362 129q-152 134 -152 357z" />
<glyph unicode="&#x455;" horiz-adv-x="1060" d="M92 92l45 293q71 -53 186.5 -90t237.5 -37q121 0 121 53q0 27 -43 45q-29 14 -45 19q-48 19 -133 45q-150 52 -214.5 114t-64.5 160q0 181 140 277t346 96q260 0 428 -119l-47 -286q-173 124 -367 124q-121 0 -121 -51q0 -24 27 -38.5t117 -41.5l73 -22 q143 -45 209 -114.5t66 -180.5q0 -176 -146 -272q-146 -93 -340 -93q-131 0 -261 32t-214 87z" />
<glyph unicode="&#x456;" horiz-adv-x="634" d="M135 0l164 1040h363l-164 -1040h-363zM317 1343q0 88 60.5 148.5t146.5 60.5q88 0 148.5 -60.5t60.5 -148.5t-60.5 -148t-148.5 -60q-86 0 -146.5 60.5t-60.5 147.5z" />
<glyph unicode="&#x457;" horiz-adv-x="567" d="M59 1337q0 73 52.5 124.5t126.5 51.5q75 0 126.5 -51t51.5 -125t-51.5 -126t-126.5 -52q-72 0 -125.5 52.5t-53.5 125.5zM102 0l164 1040h363l-164 -1040h-363zM524 1337.5q0 73.5 51 124.5q54 51 127.5 51t124.5 -51q54 -51 54 -124.5t-54 -127.5q-51 -51 -124.5 -51 t-127.5 51q-51 54 -51 127.5z" />
<glyph unicode="&#x458;" horiz-adv-x="634" d="M-225 -377l47 301q71 -39 149 -39q80 0 118.5 38t55.5 140l154 977h363l-170 -1073q-31 -191 -153 -290t-321 -99q-166 0 -243 45zM317 1343q0 88 60.5 148.5t146.5 60.5q88 0 148.5 -60.5t60.5 -148.5t-60.5 -148t-148.5 -60q-86 0 -146.5 60.5t-60.5 147.5z" />
<glyph unicode="&#x459;" horiz-adv-x="1890" d="M41 14l49 297q19 -9 44.5 -11.5t55.5 5t50 27.5q36 36 59 106q25 67 41 144q20 94 37 196l45 262h948l-45 -284h164q186 0 296.5 -89t110.5 -241q0 -185 -129 -305q-130 -121 -340 -121h-585l119 750h-244q-23 -138 -58 -297q-47 -204 -165 -334q-119 -131 -304 -131 q-104 0 -149 26zM1249 266h140q69 0 111 35t42 96q0 48 -34.5 76.5t-94.5 28.5h-127z" />
<glyph unicode="&#x45a;" horiz-adv-x="1855" d="M125 0l164 1040h362l-57 -362h321l60 362h362l-45 -284h162q187 0 297.5 -89t110.5 -241q0 -185 -129 -305q-130 -121 -340 -121h-586l61 387h-321l-60 -387h-362zM1214 266h140q69 0 111 35t42 96q0 48 -34.5 76.5t-94.5 28.5h-127z" />
<glyph unicode="&#x45b;" horiz-adv-x="1357" d="M170 1042l39 238h207l24 154h363l-25 -154h346l-39 -238h-346l-49 -309q155 146 328 146q146 0 230.5 -95t84.5 -252q0 -72 -12 -145l-59 -387h-363l51 334q8 47 8 86q0 66 -35.5 100.5t-93.5 34.5q-98 0 -180 -88l-74 -467h-362l164 1042h-207z" />
<glyph unicode="&#x45c;" horiz-adv-x="1294" d="M125 0l164 1040h362l-57 -348l344 348h457l-490 -491l391 -549h-417l-324 440l-68 -440h-362zM662 1180l243 311h428l-370 -311h-301z" />
<glyph unicode="&#x45e;" horiz-adv-x="1247" d="M43 -375l49 312q71 -50 160 -50q146 0 229 148l-297 1005h377l146 -626l301 626h383l-629 -1144q-176 -318 -496 -318q-134 0 -223 47zM481 1446q0 3 4 53h230v-12q0 -58 29.5 -91.5t84.5 -33.5q57 0 98.5 37.5t55.5 99.5h229q-30 -164 -138 -257t-259 -93 q-145 0 -239.5 80.5t-94.5 216.5z" />
<glyph unicode="&#x45f;" horiz-adv-x="1300" d="M125 0l164 1040h362l-119 -749h322l119 749h362l-164 -1040h-348l-39 -244h-350l39 244h-348z" />
<glyph unicode="&#x490;" horiz-adv-x="1267" d="M137 0l225 1434h728l45 278h331l-96 -602h-690l-174 -1110h-369z" />
<glyph unicode="&#x491;" horiz-adv-x="1015" d="M125 0l164 1040h518l39 244h332l-86 -534h-488l-117 -750h-362z" />
<glyph unicode="&#x2000;" horiz-adv-x="965" />
<glyph unicode="&#x2001;" horiz-adv-x="1931" />
<glyph unicode="&#x2002;" horiz-adv-x="965" />
<glyph unicode="&#x2003;" horiz-adv-x="1931" />
<glyph unicode="&#x2004;" horiz-adv-x="643" />
<glyph unicode="&#x2005;" horiz-adv-x="482" />
<glyph unicode="&#x2006;" horiz-adv-x="321" />
<glyph unicode="&#x2007;" horiz-adv-x="321" />
<glyph unicode="&#x2008;" horiz-adv-x="241" />
<glyph unicode="&#x2009;" horiz-adv-x="386" />
<glyph unicode="&#x200a;" horiz-adv-x="107" />
<glyph unicode="&#x2010;" horiz-adv-x="1009" d="M238 414l51 323h661l-51 -323h-661z" />
<glyph unicode="&#x2011;" horiz-adv-x="1009" d="M238 414l51 323h661l-51 -323h-661z" />
<glyph unicode="&#x2012;" horiz-adv-x="1009" d="M238 414l51 323h661l-51 -323h-661z" />
<glyph unicode="&#x2013;" horiz-adv-x="1589" d="M238 414l53 323h1239l-53 -323h-1239z" />
<glyph unicode="&#x2014;" horiz-adv-x="1855" d="M238 414l53 323h1505l-53 -323h-1505z" />
<glyph unicode="&#x2015;" horiz-adv-x="1589" d="M238 414l53 323h1239l-53 -323h-1239z" />
<glyph unicode="&#x2018;" horiz-adv-x="649" d="M164 762l368 672h293l-286 -672h-375z" />
<glyph unicode="&#x2019;" horiz-adv-x="649" d="M164 762l287 672h374l-368 -672h-293z" />
<glyph unicode="&#x201a;" horiz-adv-x="669" d="M-25 -311l287 671h375l-369 -671h-293z" />
<glyph unicode="&#x201c;" horiz-adv-x="1163" d="M164 762l368 672h293l-286 -672h-375zM678 762l369 672h292l-286 -672h-375z" />
<glyph unicode="&#x201d;" horiz-adv-x="1163" d="M164 762l287 672h374l-368 -672h-293zM678 762l287 672h374l-368 -672h-293z" />
<glyph unicode="&#x201e;" horiz-adv-x="1183" d="M-25 -311l287 671h375l-369 -671h-293zM489 -311l287 671h375l-369 -671h-293z" />
<glyph unicode="&#x2020;" horiz-adv-x="1003" d="M156 791l41 249h335l62 394h262l-61 -394h335l-40 -249h-336l-125 -791h-262l125 791h-336z" />
<glyph unicode="&#x2021;" horiz-adv-x="1003" d="M88 358l39 250h336l29 183h-336l41 249h335l62 394h262l-61 -394h335l-40 -249h-336l-29 -183h336l-39 -250h-336l-57 -358h-262l57 358h-336z" />
<glyph unicode="&#x2022;" horiz-adv-x="858" d="M205 803q0 139 98 237q101 101 240 101t237 -101q99 -99 99 -237q0 -139 -99 -238q-98 -98 -237 -98t-240 98q-98 98 -98 238z" />
<glyph unicode="&#x2026;" horiz-adv-x="1642" d="M104 190q0 87 62 152q64 64 153 64q91 0 152 -64q64 -64 64 -152q0 -91 -62.5 -154t-153.5 -63t-153 63t-62 154zM639 190q0 88 63.5 152t151.5 64t151.5 -64t63.5 -152q0 -91 -62 -154t-153 -63t-153 63t-62 154zM1174 190q0 88 61 152q64 64 154 64t151 -64 q64 -64 64 -152q0 -91 -62 -154t-153 -63t-153 63t-62 154z" />
<glyph unicode="&#x202f;" horiz-adv-x="386" />
<glyph unicode="&#x2030;" horiz-adv-x="2492" d="M176 1077q0 153 107 260q108 111 270 111q156 0 260 -96q102 -94 102 -246q0 -151 -108 -262q-109 -109 -268 -109t-260 94q-103 95 -103 248zM285 0l1091 1434h244l-1092 -1434h-243zM414 1075q0 -56 34 -89.5t89 -33.5q60 0 100.5 44.5t40.5 111.5q0 56 -34 89.5 t-89 33.5q-60 0 -100.5 -44.5t-40.5 -111.5zM987 328q0 153 107 260q107 110 270 110q156 0 260 -96q102 -94 102 -246q0 -151 -108 -262q-108 -108 -268 -108q-159 0 -260 94q-103 95 -103 248zM1225 326q0 -56 34 -89.5t89 -33.5q60 0 100.5 44t40.5 111q0 56 -34 89.5 t-89 33.5q-60 0 -100.5 -44t-40.5 -111zM1798 328q0 153 107 260q107 110 270 110q156 0 260 -96q102 -94 102 -246q0 -151 -108 -262q-108 -108 -268 -108q-159 0 -260 94q-103 95 -103 248zM2036 326q0 -56 34 -89.5t89 -33.5q60 0 100.5 44t40.5 111q0 56 -34 89.5 t-89 33.5q-60 0 -100.5 -44t-40.5 -111z" />
<glyph unicode="&#x2039;" horiz-adv-x="753" d="M137 430l27 178l325 367h361l-399 -471l254 -438h-361z" />
<glyph unicode="&#x203a;" horiz-adv-x="759" d="M63 66l400 471l-254 438h360l207 -365l-26 -178l-326 -366h-361z" />
<glyph unicode="&#x2044;" horiz-adv-x="493" d="M-322 0l1098 1434h246l-1098 -1434h-246z" />
<glyph unicode="&#x205f;" horiz-adv-x="482" />
<glyph unicode="&#x20a3;" horiz-adv-x="1400" d="M70 174l39 254h196l160 1006h1089l-51 -324h-721l-32 -209h538l-49 -311h-539l-26 -162h280l-39 -254h-280l-29 -174h-368l28 174h-196z" />
<glyph unicode="&#x20a4;" horiz-adv-x="1253" d="M80 0l51 324h62q116 0 137 131l2 10h-180l26 168h180l13 80h-178l26 168h178l13 80q38 237 204 366q170 135 418 135q190 0 316 -63l-58 -355q-133 62 -254 62q-233 0 -268 -213l-2 -12h410l-27 -168h-410l-12 -80h408l-27 -168h-408l-2 -12q-7 -41 -27 -74.5t-40 -44.5 l-17 -10h605l-52 -324h-1087z" />
<glyph unicode="&#x20a7;" horiz-adv-x="1523" d="M162 846l41 268h182l51 320h615q194 0 318 -86t151 -234h172l-41 -268h-162q-60 -143 -202.5 -227t-330.5 -84h-292l-84 -535h-369l133 846h-182zM711 838h241q87 0 144 41.5t57 119.5q0 123 -154 123h-243z" />
<glyph unicode="&#x20ac;" horiz-adv-x="1327" d="M127 481l31 199h127q1 20 8 102h-119l33 199h137q87 226 283.5 353.5t468.5 127.5q184 0 325 -69l-63 -338q-120 69 -277 69q-222 0 -329 -143h346l-33 -199h-395q-11 -50 -11 -102h390l-31 -199h-324q82 -174 332 -174q192 0 313 92l-57 -366q-130 -62 -324 -62 q-244 0 -428 140q-176 136 -229 370h-174z" />
<glyph unicode="&#x20b4;" horiz-adv-x="1228" d="M170 530l27 175h1069l-27 -175h-520q-115 -47 -115 -131q0 -104 215 -104q84 0 189 18q102 20 170 52l-54 -332q-174 -62 -366 -62q-184 0 -357 66q-93 36 -147.5 110.5t-54.5 174.5q0 126 82 208h-111zM211 793l27 174h577q47 27 47 86q0 92 -205 92q-182 0 -321 -53 l51 323q127 47 344 47q190 0 348 -71q87 -38 137 -109t50 -166q0 -85 -43 -149h84l-27 -174h-1069z" />
<glyph unicode="&#x20b6;" horiz-adv-x="1519" d="M72 174l41 254h237l17 107h-238l39 253h238l102 646h614q219 0 348 -110t129 -290q0 -224 -161 -360q-160 -139 -410 -139h-293l-16 -107h479l-41 -254h-479l-27 -174h-368l26 174h-237zM774 788h215q102 0 169 48.5t67 138.5q0 70 -47 108.5t-134 38.5h-217z" />
<glyph unicode="&#x20ce;" horiz-adv-x="1519" d="M72 174l41 254h237l17 107h-238l39 253h238l102 646h614q219 0 348 -110t129 -290q0 -224 -161 -360q-160 -139 -410 -139h-293l-16 -107h479l-41 -254h-479l-27 -174h-368l26 174h-237zM774 788h215q102 0 169 48.5t67 138.5q0 70 -47 108.5t-134 38.5h-217z" />
<glyph unicode="&#x20cd;" horiz-adv-x="1519" d="M72 174l41 254h237l17 107h-238l39 253h238l102 646h614q219 0 348 -110t129 -290q0 -224 -161 -360q-160 -139 -410 -139h-293l-16 -107h479l-41 -254h-479l-27 -174h-368l26 174h-237zM774 788h215q102 0 169 48.5t67 138.5q0 70 -47 108.5t-134 38.5h-217z" />
<glyph unicode="&#x20cc;" horiz-adv-x="1519" d="M72 174l41 254h237l17 107h-238l39 253h238l102 646h614q219 0 348 -110t129 -290q0 -224 -161 -360q-160 -139 -410 -139h-293l-16 -107h479l-41 -254h-479l-27 -174h-368l26 174h-237zM774 788h215q102 0 169 48.5t67 138.5q0 70 -47 108.5t-134 38.5h-217z" />
<glyph unicode="&#x20cb;" horiz-adv-x="1519" d="M72 174l41 254h237l17 107h-238l39 253h238l102 646h614q219 0 348 -110t129 -290q0 -224 -161 -360q-160 -139 -410 -139h-293l-16 -107h479l-41 -254h-479l-27 -174h-368l26 174h-237zM774 788h215q102 0 169 48.5t67 138.5q0 70 -47 108.5t-134 38.5h-217z" />
<glyph unicode="&#x20ca;" horiz-adv-x="1519" d="M72 174l41 254h237l17 107h-238l39 253h238l102 646h614q219 0 348 -110t129 -290q0 -224 -161 -360q-160 -139 -410 -139h-293l-16 -107h479l-41 -254h-479l-27 -174h-368l26 174h-237zM774 788h215q102 0 169 48.5t67 138.5q0 70 -47 108.5t-134 38.5h-217z" />
<glyph unicode="&#x20c9;" horiz-adv-x="1519" d="M72 174l41 254h237l17 107h-238l39 253h238l102 646h614q219 0 348 -110t129 -290q0 -224 -161 -360q-160 -139 -410 -139h-293l-16 -107h479l-41 -254h-479l-27 -174h-368l26 174h-237zM774 788h215q102 0 169 48.5t67 138.5q0 70 -47 108.5t-134 38.5h-217z" />
<glyph unicode="&#x20c8;" horiz-adv-x="1519" d="M72 174l41 254h237l17 107h-238l39 253h238l102 646h614q219 0 348 -110t129 -290q0 -224 -161 -360q-160 -139 -410 -139h-293l-16 -107h479l-41 -254h-479l-27 -174h-368l26 174h-237zM774 788h215q102 0 169 48.5t67 138.5q0 70 -47 108.5t-134 38.5h-217z" />
<glyph unicode="&#x20c7;" horiz-adv-x="1519" d="M72 174l41 254h237l17 107h-238l39 253h238l102 646h614q219 0 348 -110t129 -290q0 -224 -161 -360q-160 -139 -410 -139h-293l-16 -107h479l-41 -254h-479l-27 -174h-368l26 174h-237zM774 788h215q102 0 169 48.5t67 138.5q0 70 -47 108.5t-134 38.5h-217z" />
<glyph unicode="&#x20c6;" horiz-adv-x="1519" d="M72 174l41 254h237l17 107h-238l39 253h238l102 646h614q219 0 348 -110t129 -290q0 -224 -161 -360q-160 -139 -410 -139h-293l-16 -107h479l-41 -254h-479l-27 -174h-368l26 174h-237zM774 788h215q102 0 169 48.5t67 138.5q0 70 -47 108.5t-134 38.5h-217z" />
<glyph unicode="&#x20c5;" horiz-adv-x="1519" d="M72 174l41 254h237l17 107h-238l39 253h238l102 646h614q219 0 348 -110t129 -290q0 -224 -161 -360q-160 -139 -410 -139h-293l-16 -107h479l-41 -254h-479l-27 -174h-368l26 174h-237zM774 788h215q102 0 169 48.5t67 138.5q0 70 -47 108.5t-134 38.5h-217z" />
<glyph unicode="&#x20c4;" horiz-adv-x="1519" d="M72 174l41 254h237l17 107h-238l39 253h238l102 646h614q219 0 348 -110t129 -290q0 -224 -161 -360q-160 -139 -410 -139h-293l-16 -107h479l-41 -254h-479l-27 -174h-368l26 174h-237zM774 788h215q102 0 169 48.5t67 138.5q0 70 -47 108.5t-134 38.5h-217z" />
<glyph unicode="&#x20c3;" horiz-adv-x="1519" d="M72 174l41 254h237l17 107h-238l39 253h238l102 646h614q219 0 348 -110t129 -290q0 -224 -161 -360q-160 -139 -410 -139h-293l-16 -107h479l-41 -254h-479l-27 -174h-368l26 174h-237zM774 788h215q102 0 169 48.5t67 138.5q0 70 -47 108.5t-134 38.5h-217z" />
<glyph unicode="&#x20c2;" horiz-adv-x="1519" d="M72 174l41 254h237l17 107h-238l39 253h238l102 646h614q219 0 348 -110t129 -290q0 -224 -161 -360q-160 -139 -410 -139h-293l-16 -107h479l-41 -254h-479l-27 -174h-368l26 174h-237zM774 788h215q102 0 169 48.5t67 138.5q0 70 -47 108.5t-134 38.5h-217z" />
<glyph unicode="&#x20c1;" horiz-adv-x="1519" d="M72 174l41 254h237l17 107h-238l39 253h238l102 646h614q219 0 348 -110t129 -290q0 -224 -161 -360q-160 -139 -410 -139h-293l-16 -107h479l-41 -254h-479l-27 -174h-368l26 174h-237zM774 788h215q102 0 169 48.5t67 138.5q0 70 -47 108.5t-134 38.5h-217z" />
<glyph unicode="&#x20c0;" horiz-adv-x="1519" d="M72 174l41 254h237l17 107h-238l39 253h238l102 646h614q219 0 348 -110t129 -290q0 -224 -161 -360q-160 -139 -410 -139h-293l-16 -107h479l-41 -254h-479l-27 -174h-368l26 174h-237zM774 788h215q102 0 169 48.5t67 138.5q0 70 -47 108.5t-134 38.5h-217z" />
<glyph unicode="&#x20bf;" horiz-adv-x="1519" d="M72 174l41 254h237l17 107h-238l39 253h238l102 646h614q219 0 348 -110t129 -290q0 -224 -161 -360q-160 -139 -410 -139h-293l-16 -107h479l-41 -254h-479l-27 -174h-368l26 174h-237zM774 788h215q102 0 169 48.5t67 138.5q0 70 -47 108.5t-134 38.5h-217z" />
<glyph unicode="&#x20be;" horiz-adv-x="1519" d="M72 174l41 254h237l17 107h-238l39 253h238l102 646h614q219 0 348 -110t129 -290q0 -224 -161 -360q-160 -139 -410 -139h-293l-16 -107h479l-41 -254h-479l-27 -174h-368l26 174h-237zM774 788h215q102 0 169 48.5t67 138.5q0 70 -47 108.5t-134 38.5h-217z" />
<glyph unicode="&#x20bd;" horiz-adv-x="1519" d="M72 174l41 254h237l17 107h-238l39 253h238l102 646h614q219 0 348 -110t129 -290q0 -224 -161 -360q-160 -139 -410 -139h-293l-16 -107h479l-41 -254h-479l-27 -174h-368l26 174h-237zM774 788h215q102 0 169 48.5t67 138.5q0 70 -47 108.5t-134 38.5h-217z" />
<glyph unicode="&#x20bc;" horiz-adv-x="1519" d="M72 174l41 254h237l17 107h-238l39 253h238l102 646h614q219 0 348 -110t129 -290q0 -224 -161 -360q-160 -139 -410 -139h-293l-16 -107h479l-41 -254h-479l-27 -174h-368l26 174h-237zM774 788h215q102 0 169 48.5t67 138.5q0 70 -47 108.5t-134 38.5h-217z" />
<glyph unicode="&#x20bb;" horiz-adv-x="1519" d="M72 174l41 254h237l17 107h-238l39 253h238l102 646h614q219 0 348 -110t129 -290q0 -224 -161 -360q-160 -139 -410 -139h-293l-16 -107h479l-41 -254h-479l-27 -174h-368l26 174h-237zM774 788h215q102 0 169 48.5t67 138.5q0 70 -47 108.5t-134 38.5h-217z" />
<glyph unicode="&#x20ba;" horiz-adv-x="1519" d="M72 174l41 254h237l17 107h-238l39 253h238l102 646h614q219 0 348 -110t129 -290q0 -224 -161 -360q-160 -139 -410 -139h-293l-16 -107h479l-41 -254h-479l-27 -174h-368l26 174h-237zM774 788h215q102 0 169 48.5t67 138.5q0 70 -47 108.5t-134 38.5h-217z" />
<glyph unicode="&#x20b9;" horiz-adv-x="1519" d="M72 174l41 254h237l17 107h-238l39 253h238l102 646h614q219 0 348 -110t129 -290q0 -224 -161 -360q-160 -139 -410 -139h-293l-16 -107h479l-41 -254h-479l-27 -174h-368l26 174h-237zM774 788h215q102 0 169 48.5t67 138.5q0 70 -47 108.5t-134 38.5h-217z" />
<glyph unicode="&#x20b7;" horiz-adv-x="1519" d="M72 174l41 254h237l17 107h-238l39 253h238l102 646h614q219 0 348 -110t129 -290q0 -224 -161 -360q-160 -139 -410 -139h-293l-16 -107h479l-41 -254h-479l-27 -174h-368l26 174h-237zM774 788h215q102 0 169 48.5t67 138.5q0 70 -47 108.5t-134 38.5h-217z" />
<glyph unicode="&#x2122;" horiz-adv-x="1394" d="M233 1290l23 144h549l-23 -144h-192l-78 -495h-166l78 495h-191zM803 795l100 639h154l123 -236l194 236h164l-100 -639h-164l61 387l-135 -160h-86l-86 160l-61 -387h-164z" />
<glyph unicode="&#x25fc;" horiz-adv-x="1044" d="M0 0v1044h1044v-1044h-1044z" />
</font>
</defs>
</svg>
