<svg xmlns="http://www.w3.org/2000/svg" viewBox="0 0 327.03 340"><defs><style>.cls-1{fill:#83b14e;}.cls-2{fill:#d06566;}.cls-3{fill:#d37a3d;}.cls-4{fill:#edc367;}.cls-5{fill:#6ba8cc;}.cls-6{fill:#255588;}</style></defs><title>4-1</title><g id="Слой_2" data-name="Слой 2"><g id="Слой_1-2" data-name="Слой 1"><path class="cls-1" d="M157.17,0V80a90,90,0,1,1-46.33,167.17L69.69,315.72c27.82,16.73,55,24.28,87.48,24.28C251,340,327,263.89,327,170S251,0,157.17,0Z"/><path class="cls-2" d="M67.17,170a89.67,89.67,0,0,1,7.78-36.64L25.3,111.24h0L13.58,106A157.29,157.29,0,0,0,76.26,304.76l34.58-57.59A90,90,0,0,1,67.17,170Z"/><path class="cls-3" d="M93.56,106.33,64.22,77h0l-9.07-9.08A144.63,144.63,0,0,0,25.3,111.24l49.64,22.12A90.18,90.18,0,0,1,93.56,106.33Z"/><polygon class="cls-3" points="74.94 133.36 74.94 133.36 25.3 111.24 25.3 111.24 74.94 133.36"/><path class="cls-4" d="M119.15,88.41,107,62.41h0l-5.42-11.63A131.81,131.81,0,0,0,64.22,77l29.34,29.36A90.21,90.21,0,0,1,119.15,88.41Z"/><polygon class="cls-4" points="93.56 106.33 93.56 106.33 64.22 76.97 64.22 76.97 93.56 106.33"/><path class="cls-5" d="M140,81.64l-3-15.56h0l-2.45-12.6A117.79,117.79,0,0,0,107,62.41l12.11,26A89.32,89.32,0,0,1,140,81.64Z"/><polygon class="cls-5" points="119.15 88.41 119.15 88.41 107.04 62.41 107.04 62.41 119.15 88.41"/><path class="cls-6" d="M157.17,80V64.15A106.36,106.36,0,0,0,137,66.08l3,15.56A90.44,90.44,0,0,1,157.17,80Z"/><polygon class="cls-6" points="140.01 81.64 140.01 81.64 136.99 66.08 136.99 66.08 140.01 81.64"/></g></g></svg>