<svg xmlns="http://www.w3.org/2000/svg" viewBox="0 0 330.54 340"><defs><style>.cls-1{fill:#bf3650;}.cls-2{fill:#cc5659;}.cls-3{fill:#d97663;}.cls-4{fill:#e5966c;}.cls-5{fill:#ffd67f;}.cls-6{fill:#fff;}</style></defs><title>5-1</title><g id="Слой_2" data-name="Слой 2"><g id="Слой_1-2" data-name="Слой 1"><path class="cls-1" d="M160.54,0V70A100,100,0,1,1,67.17,205.84L10.53,227.58h0l-8.7,3.34C27.91,298.85,87.78,340,160.54,340a170,170,0,1,0,0-340Z"/><path class="cls-2" d="M60.54,170a99.57,99.57,0,0,1,21.2-61.57L34.17,71.27A160.74,160.74,0,0,0,10.53,227.58l56.63-21.74A99.75,99.75,0,0,1,60.54,170Z"/><polygon class="cls-2" points="67.17 205.84 67.17 205.84 10.54 227.58 10.54 227.58 67.17 205.84"/><path class="cls-3" d="M110.54,83.39l-25.43-44A151.86,151.86,0,0,0,41.61,77.08l40.13,31.35A100.49,100.49,0,0,1,110.54,83.39Z"/><path class="cls-4" d="M126.39,42.54h0l-2.44-9.12A140.81,140.81,0,0,0,89.83,47.52l20.71,35.86a99.39,99.39,0,0,1,24.12-10Z"/><path class="cls-5" d="M160.54,70h0V38.07a132.37,132.37,0,0,0-34.15,4.47l8.27,30.85A100.12,100.12,0,0,1,160.54,70Z"/><polygon class="cls-5" points="134.66 73.39 134.66 73.39 126.39 42.54 126.39 42.54 134.66 73.39"/><polygon class="cls-6" points="67.17 205.84 67.17 205.84 69.71 204.87 67.17 205.84"/></g></g></svg>