<svg xmlns="http://www.w3.org/2000/svg" viewBox="0 0 400 400"><defs><style>.cls-1{fill:#ff9c7d;}.cls-2{fill:#fccb64;}.cls-3{fill:#88ba4d;}.cls-4{fill:#54bce8;}.cls-5{fill:#dd7d3a;}.cls-6{fill:#d06566;}</style></defs><title>3-1</title><g id="Слой_2" data-name="Слой 2"><g id="Слой_1-2" data-name="Слой 1"><path class="cls-1" d="M200,0V66.67h0V100a100,100,0,1,1-77.71,37.07L44.57,74.14C14,111.91,0,151.4,0,200,0,310.46,89.54,400,200,400s200-89.54,200-200S310.46,0,200,0Z"/><path class="cls-2" d="M151.51,112.53,116,48.38h0l-6.46-11.66A187.52,187.52,0,0,0,54.94,82.53l67.35,54.54A100.46,100.46,0,0,1,151.51,112.53Z"/><path class="cls-3" d="M162.53,107.26l-27.48-68A172.54,172.54,0,0,0,116,48.38l35.56,64.15A99.54,99.54,0,0,1,162.53,107.26Z"/><polygon class="cls-3" points="151.51 112.53 151.51 112.53 115.96 48.38 115.96 48.38 151.51 112.53"/><path class="cls-4" d="M162,58.31h0l-3.45-12.88a158.74,158.74,0,0,0-18.53,6.2l22.48,55.64a99.22,99.22,0,0,1,11.58-3.87Z"/><path class="cls-5" d="M186.08,101l-6.49-46.21A145.92,145.92,0,0,0,162,58.31l12.08,45.08A99.48,99.48,0,0,1,186.08,101Z"/><polygon class="cls-5" points="174.11 103.39 174.11 103.39 162.03 58.31 162.03 58.31 174.11 103.39"/><path class="cls-6" d="M200,66.67A134.44,134.44,0,0,0,181.44,68l4.64,33A100.84,100.84,0,0,1,200,100Z"/><polygon class="cls-6" points="200 100 200 66.67 200 66.67 200 100 200 100"/></g></g></svg>