<svg xmlns="http://www.w3.org/2000/svg" viewBox="0 0 345.32 360"><defs><style>.cls-1{fill:none;}.cls-2{fill:#7aaf3c;}.cls-3{fill:#d06566;}.cls-4{fill:#ef9050;}.cls-5{fill:#ffdf9a;}.cls-6{fill:#115893;}.cls-7{fill:#1f2e54;}.cls-8{fill:#386300;}</style></defs><title>7-1</title><g id="Слой_2" data-name="Слой 2"><g id="Слой_1-2" data-name="Слой 1"><polygon class="cls-1" points="278.83 194.9 258.56 193.48 258.56 193.48 278.83 194.9"/><path class="cls-2" d="M345.32,186.51C345.32,83.5,261.81,0,158.81,0V86.49a100,100,0,0,1,100,100c0,2.35-.09,4.67-.25,7l20.27,1.42,56.64,4h0l9.39.66C345.19,194.89,345.32,191.14,345.32,186.51Z"/><path class="cls-3" d="M258.56,193.48a100.06,100.06,0,0,1-79,90.87L195.68,360A177.36,177.36,0,0,0,335.47,198.86l-56.64-4Z"/><polygon class="cls-3" points="278.83 194.9 335.47 198.86 335.47 198.86 278.83 194.9"/><path class="cls-4" d="M75.89,242.44,19.38,280.55a168.16,168.16,0,0,0,174.36,70.32l-14.14-66.52A100.12,100.12,0,0,1,75.89,242.44Z"/><path class="cls-5" d="M60.31,169.14,2.41,158.93A159.61,159.61,0,0,0,0,186.61a157.89,157.89,0,0,0,27.12,88.72l48.78-32.9a99.56,99.56,0,0,1-17.08-55.93A100.65,100.65,0,0,1,60.31,169.14Z"/><path class="cls-6" d="M53.2,80.9a148.93,148.93,0,0,0-41.6,79.65l48.71,8.59a99.78,99.78,0,0,1,27.78-53.35Z"/><path class="cls-7" d="M134.61,89.45l-7.39-29.65h0L125,50.74A139.75,139.75,0,0,0,59.8,87.5l28.29,28.29A99.86,99.86,0,0,1,134.61,89.45Z"/><path class="cls-8" d="M158.81,86.49h0V56h-.19a130.9,130.9,0,0,0-31.41,3.81l7.39,29.65A100.19,100.19,0,0,1,158.81,86.49Z"/><polygon class="cls-8" points="134.61 89.45 134.61 89.45 127.22 59.79 127.21 59.79 134.61 89.45"/></g></g></svg>