<svg xmlns="http://www.w3.org/2000/svg" viewBox="0 0 283.38 300"><defs><style>.cls-1{fill:#88ba4d;}.cls-2{fill:#0bbbef;}.cls-3{fill:#b0a59c;}</style></defs><title>8-1</title><g id="Слой_2" data-name="Слой 2"><g id="Слой_1-2" data-name="Слой 1"><path class="cls-1" d="M133.33,0V75A75,75,0,0,1,135.95,225l2.62,75A150,150,0,0,0,133.33,0Z"/><path class="cls-2" d="M58.33,150A75,75,0,0,1,104,81L87.74,42.63h0l-6.5-15.32A133.12,133.12,0,0,0,133.1,283c1.63,0,3.26,0,4.88-.1l-2-57.94c-.87,0-1.74.07-2.62.07A75,75,0,0,1,58.33,150Z"/><path class="cls-3" d="M133.33,75V33.47h-.24a116.09,116.09,0,0,0-45.36,9.16L104,81A74.76,74.76,0,0,1,133.33,75Z"/><polygon class="cls-3" points="104.02 80.99 104.02 80.99 87.74 42.63 87.74 42.63 104.02 80.99"/></g></g></svg>