<svg xmlns="http://www.w3.org/2000/svg" viewBox="0 0 322.24 340"><defs><style>.cls-1{fill:#0bbbef;}.cls-2{fill:#169fdb;}.cls-3{fill:#007cb2;}.cls-4{fill:#046ba5;}.cls-5{fill:#005893;}.cls-6{fill:#fff;}</style></defs><title>2-1</title><g id="Слой_2" data-name="Слой 2"><g id="Слой_1-2" data-name="Слой 1"><path class="cls-1" d="M322.24,178.87A178.87,178.87,0,0,0,143.37,0V71.47h0v32.4a75,75,0,0,1,62.18,116.94l71.3,48.1h0l14.8,10C312.65,247.77,322.24,216.41,322.24,178.87Z"/><path class="cls-2" d="M143.37,253.87a74.65,74.65,0,0,1-41.94-12.82L53.21,312.53a161.17,161.17,0,0,0,223.64-43.62l-71.3-48.1A74.92,74.92,0,0,1,143.37,253.87Z"/><polygon class="cls-2" points="205.55 220.82 205.55 220.82 276.85 268.91 276.85 268.91 205.55 220.82"/><path class="cls-3" d="M68.37,178.87a75,75,0,0,1,3.27-21.93l-65.39-20a143.4,143.4,0,0,0,57,160.74l38.2-56.63A74.92,74.92,0,0,1,68.37,178.87Z"/><path class="cls-4" d="M105.87,113.93,89.62,85.78h0l-9-15.51a125.64,125.64,0,0,0-57.3,71.91l48.27,14.76A75.17,75.17,0,0,1,105.87,113.93Z"/><path class="cls-5" d="M143.37,103.87V71.47h-.15a106.91,106.91,0,0,0-53.6,14.31l16.25,28.15A74.63,74.63,0,0,1,143.37,103.87Z"/><rect class="cls-5" x="143.37" y="71.47" height="32.4"/><polygon class="cls-5" points="105.87 113.93 105.87 113.93 89.62 85.78 89.62 85.78 105.87 113.93"/><polygon class="cls-6" points="143.37 178.87 143.37 178.87 143.37 178.87 143.37 178.87"/><polygon class="cls-6" points="143.37 178.87 143.37 178.87 143.37 178.87 143.37 178.87"/><circle class="cls-6" cx="143.37" cy="178.87"/><polygon class="cls-6" points="143.37 178.87 143.37 178.87 143.37 178.87 143.37 178.87"/><polygon class="cls-6" points="143.37 178.87 143.37 178.87 143.37 178.87 143.37 178.87"/></g></g></svg>