<svg xmlns="http://www.w3.org/2000/svg" viewBox="0 0 179.64 198.98"><defs><style>.cls-1{fill:#eccc00;}.cls-2{fill:#c2d6ee;}.cls-3{fill:#01275b;}.cls-4{fill:#fff;}</style></defs><title>1-2</title><g id="Слой_2" data-name="Слой 2"><g id="Слой_1-2" data-name="Слой 1"><path class="cls-1" d="M79.66,0V19.6h0V37a63,63,0,0,1,8.77,125.38L93.58,199c50.3-7.07,86.06-48.21,86.06-99A100,100,0,0,0,79.66,0Z"/><path class="cls-2" d="M28.7,137,7.26,152.58a89.87,89.87,0,0,0,72.74,37,90.78,90.78,0,0,0,12.14-.82l-3.71-26.42A62.88,62.88,0,0,1,28.7,137Z"/><path class="cls-3" d="M79.66,37V19.6A80,80,0,0,0,15.35,146.7L28.7,137a63,63,0,0,1,51-100Z"/><polygon class="cls-3" points="79.66 36.98 79.66 19.6 79.66 19.6 79.66 36.98 79.66 36.98"/><polygon class="cls-4" points="88.43 162.36 88.43 162.36 88.04 159.57 88.43 162.36"/><polygon class="cls-4" points="79.66 99.98 79.66 99.98 79.66 99.98 79.66 99.98"/></g></g></svg>