<svg xmlns="http://www.w3.org/2000/svg" viewBox="0 0 268.48 280"><defs><style>.cls-1{fill:#88ba4d;}.cls-2{fill:#54bce8;}.cls-3{fill:#fccb64;}.cls-4{fill:#d06566;}</style></defs><title>1-1</title><g id="Слой_2" data-name="Слой 2"><g id="Слой_1-2" data-name="Слой 1"><path class="cls-1" d="M185,155.79a62.69,62.69,0,0,1-11.86,36.77l57.74,52c25.61-28.44,37.63-59.76,37.63-98A146.51,146.51,0,0,0,122,0V92.79A63,63,0,0,1,185,155.79Z"/><path class="cls-2" d="M122,218.79A63,63,0,0,1,61.5,173.44L0,200.82a133.51,133.51,0,0,0,221.17,35l-48.06-43.27A62.9,62.9,0,0,1,122,218.79Z"/><path class="cls-3" d="M75.79,113,35.06,83.37h0L24.51,75.7A120.58,120.58,0,0,0,11.9,195.52l49.6-22.08A63,63,0,0,1,75.79,113Z"/><path class="cls-4" d="M122,92.79V39.07a107.27,107.27,0,0,0-86.91,44.3L75.79,113A62.82,62.82,0,0,1,122,92.79Z"/><polygon class="cls-4" points="75.79 112.96 75.79 112.96 35.06 83.37 35.06 83.37 75.79 112.96"/></g></g></svg>