<svg xmlns="http://www.w3.org/2000/svg" viewBox="0 0 268.48 280"><defs><style>.cls-1{fill:#88ba4d;}.cls-2{fill:#54bce8;}.cls-3{fill:#fccb64;}.cls-4{fill:#d06566;}</style></defs><title>6-1</title><g id="Слой_2" data-name="Слой 2"><g id="Слой_1-2" data-name="Слой 1"><path class="cls-1" d="M201.83,149.19a79.66,79.66,0,0,1-19.19,51.95l48.21,43.41c25.61-28.44,37.63-59.76,37.63-98A146.51,146.51,0,0,0,122,0V69.19A80,80,0,0,1,201.83,149.19Z"/><path class="cls-2" d="M121.83,229.19a80,80,0,0,1-74-49.65L0,200.82a133.51,133.51,0,0,0,221.17,35l-38.53-34.69A79.8,79.8,0,0,1,121.83,229.19Z"/><path class="cls-3" d="M58.47,100.37l-23.4-17L24.51,75.7A120.58,120.58,0,0,0,11.9,195.52l35.9-16a80,80,0,0,1,10.66-79.16Z"/><path class="cls-4" d="M121.83,69.19H122V39.07a107.27,107.27,0,0,0-86.91,44.3l23.4,17A79.85,79.85,0,0,1,121.83,69.19Z"/></g></g></svg>